solid StevensonScreen_V1
facet normal 1.0 0.0 0.0
  outer loop
    vertex -413.0453583365784 203.82092903782387 1.1731060567399254e-12
    vertex -413.0453583365784 197.22092903782385 6.000000000001162
    vertex -413.0453583365784 197.22092903782385 1.1731060567399254e-12
  endloop
endfacet
facet normal 1.0 0.0 0.0
  outer loop
    vertex -413.0453583365784 197.22092903782385 6.000000000001162
    vertex -413.0453583365784 203.82092903782387 1.1731060567399254e-12
    vertex -413.0453583365784 203.82092903782382 6.000000000001162
  endloop
endfacet
facet normal 0.0 0.0 1.0
  outer loop
    vertex -417.3453583365784 197.22092903782385 2.0000000000011693
    vertex -453.3453583365784 199.22092903782385 2.0000000000011693
    vertex -453.3453583365784 197.22092903782385 2.0000000000011693
  endloop
endfacet
facet normal 0.0 0.0 1.0
  outer loop
    vertex -453.3453583365784 199.22092903782385 2.0000000000011693
    vertex -417.3453583365784 197.22092903782385 2.0000000000011693
    vertex -417.3453583365784 199.22092903782385 2.0000000000011693
  endloop
endfacet
facet normal 8.566428256314786e-16 1.0 1.5184434906027146e-15
  outer loop
    vertex -413.0453583365784 203.82092903782387 1.1731060567399254e-12
    vertex -417.3453583365784 203.82092903782382 2.0000000000011693
    vertex -413.0453583365784 203.82092903782382 6.000000000001162
  endloop
endfacet
facet normal 8.566428256314786e-16 1.0 1.5184434906027146e-15
  outer loop
    vertex -417.3453583365784 203.82092903782382 2.0000000000011693
    vertex -413.0453583365784 203.82092903782387 1.1731060567399254e-12
    vertex -453.3453583365784 203.82092903782387 2.0000000000011693
  endloop
endfacet
facet normal 8.566428256314786e-16 1.0 1.5184434906027146e-15
  outer loop
    vertex -413.0453583365784 203.82092903782382 6.000000000001162
    vertex -417.3453583365784 203.82092903782382 2.0000000000011693
    vertex -417.3453583365784 203.82092903782382 10.000000000001165
  endloop
endfacet
facet normal 8.566428256314786e-16 1.0 1.5184434906027146e-15
  outer loop
    vertex -413.0453583365784 203.82092903782382 6.000000000001162
    vertex -417.3453583365784 203.82092903782382 10.000000000001165
    vertex -414.0453583365784 203.82092903782382 10.000000000001165
  endloop
endfacet
facet normal 8.566428256314786e-16 1.0 1.5184434906027146e-15
  outer loop
    vertex -457.6453583365784 203.82092903782387 1.1731060567399254e-12
    vertex -453.3453583365784 203.82092903782387 2.0000000000011693
    vertex -413.0453583365784 203.82092903782387 1.1731060567399254e-12
  endloop
endfacet
facet normal 8.566428256314786e-16 1.0 1.5184434906027146e-15
  outer loop
    vertex -453.3453583365784 203.82092903782387 2.0000000000011693
    vertex -457.6453583365784 203.82092903782387 1.1731060567399254e-12
    vertex -457.6453583365784 203.82092903782387 6.000000000001162
  endloop
endfacet
facet normal 8.566428256314786e-16 1.0 1.5184434906027146e-15
  outer loop
    vertex -453.3453583365784 203.82092903782387 2.0000000000011693
    vertex -457.6453583365784 203.82092903782387 6.000000000001162
    vertex -453.3453583365784 203.82092903782387 10.000000000001165
  endloop
endfacet
facet normal 8.566428256314786e-16 1.0 1.5184434906027146e-15
  outer loop
    vertex -453.3453583365784 203.82092903782387 10.000000000001165
    vertex -457.6453583365784 203.82092903782387 6.000000000001162
    vertex -456.64535833657834 203.82092903782387 10.000000000001165
  endloop
endfacet
facet normal 0.0 -1.0 0.0
  outer loop
    vertex -415.0453583365784 201.82092903782384 1.1731060567399254e-12
    vertex -417.3453583365784 201.82092903782384 2.0000000000011693
    vertex -455.6453583365784 201.82092903782384 1.1731060567399254e-12
  endloop
endfacet
facet normal 0.0 -1.0 0.0
  outer loop
    vertex -417.3453583365784 201.82092903782384 2.0000000000011693
    vertex -415.0453583365784 201.82092903782384 1.1731060567399254e-12
    vertex -415.0453583365784 201.82092903782384 10.000000000001165
  endloop
endfacet
facet normal 0.0 -1.0 0.0
  outer loop
    vertex -417.3453583365784 201.82092903782384 2.0000000000011693
    vertex -415.0453583365784 201.82092903782384 10.000000000001165
    vertex -417.3453583365784 201.82092903782384 10.000000000001165
  endloop
endfacet
facet normal 0.0 -1.0 0.0
  outer loop
    vertex -455.6453583365784 201.82092903782384 1.1731060567399254e-12
    vertex -453.3453583365784 201.82092903782384 2.0000000000011693
    vertex -455.6453583365784 201.82092903782384 10.000000000001165
  endloop
endfacet
facet normal 0.0 -1.0 0.0
  outer loop
    vertex -453.3453583365784 201.82092903782384 2.0000000000011693
    vertex -455.6453583365784 201.82092903782384 1.1731060567399254e-12
    vertex -417.3453583365784 201.82092903782384 2.0000000000011693
  endloop
endfacet
facet normal 0.0 -1.0 0.0
  outer loop
    vertex -455.6453583365784 201.82092903782384 10.000000000001165
    vertex -453.3453583365784 201.82092903782384 2.0000000000011693
    vertex -453.3453583365784 201.82092903782384 10.000000000001165
  endloop
endfacet
facet normal -1.0 0.0 0.0
  outer loop
    vertex -415.0453583365784 201.82092903782384 10.000000000001165
    vertex -415.0453583365784 199.22092903782385 1.1731060567399254e-12
    vertex -415.0453583365784 199.22092903782385 10.000000000001165
  endloop
endfacet
facet normal -1.0 0.0 0.0
  outer loop
    vertex -415.0453583365784 199.22092903782385 1.1731060567399254e-12
    vertex -415.0453583365784 201.82092903782384 10.000000000001165
    vertex -415.0453583365784 201.82092903782384 1.1731060567399254e-12
  endloop
endfacet
facet normal -1.0 -6.83628238193431e-15 -7.519910620127727e-15
  outer loop
    vertex -457.6453583365784 197.22092903782388 6.000000000001162
    vertex -457.6453583365784 203.82092903782387 1.1731060567399254e-12
    vertex -457.64535833657834 197.22092903782385 1.1731060567399254e-12
  endloop
endfacet
facet normal -1.0 -6.83628238193431e-15 -7.519910620127727e-15
  outer loop
    vertex -457.6453583365784 203.82092903782387 1.1731060567399254e-12
    vertex -457.6453583365784 197.22092903782388 6.000000000001162
    vertex -457.6453583365784 203.82092903782387 6.000000000001162
  endloop
endfacet
facet normal 0.0 1.0 0.0
  outer loop
    vertex -455.6453583365784 199.22092903782385 1.1731060567399254e-12
    vertex -453.3453583365784 199.22092903782385 2.0000000000011693
    vertex -415.0453583365784 199.22092903782385 1.1731060567399254e-12
  endloop
endfacet
facet normal 0.0 1.0 0.0
  outer loop
    vertex -453.3453583365784 199.22092903782385 2.0000000000011693
    vertex -455.6453583365784 199.22092903782385 1.1731060567399254e-12
    vertex -455.6453583365784 199.22092903782385 10.000000000001165
  endloop
endfacet
facet normal 0.0 1.0 0.0
  outer loop
    vertex -453.3453583365784 199.22092903782385 2.0000000000011693
    vertex -455.6453583365784 199.22092903782385 10.000000000001165
    vertex -453.3453583365784 199.22092903782385 10.000000000001165
  endloop
endfacet
facet normal 0.0 1.0 0.0
  outer loop
    vertex -415.0453583365784 199.22092903782385 1.1731060567399254e-12
    vertex -417.3453583365784 199.22092903782385 2.0000000000011693
    vertex -415.0453583365784 199.22092903782385 10.000000000001165
  endloop
endfacet
facet normal 0.0 1.0 0.0
  outer loop
    vertex -417.3453583365784 199.22092903782385 2.0000000000011693
    vertex -415.0453583365784 199.22092903782385 1.1731060567399254e-12
    vertex -453.3453583365784 199.22092903782385 2.0000000000011693
  endloop
endfacet
facet normal 0.0 1.0 0.0
  outer loop
    vertex -415.0453583365784 199.22092903782385 10.000000000001165
    vertex -417.3453583365784 199.22092903782385 2.0000000000011693
    vertex -417.3453583365784 199.22092903782385 10.000000000001165
  endloop
endfacet
facet normal 0.0 0.0 1.0
  outer loop
    vertex -414.0453583365784 197.22092903782385 10.000000000001165
    vertex -417.3453583365784 199.22092903782385 10.000000000001165
    vertex -417.3453583365784 197.22092903782385 10.000000000001165
  endloop
endfacet
facet normal 0.0 0.0 1.0
  outer loop
    vertex -417.3453583365784 199.22092903782385 10.000000000001165
    vertex -414.0453583365784 197.22092903782385 10.000000000001165
    vertex -415.0453583365784 199.22092903782385 10.000000000001165
  endloop
endfacet
facet normal 0.0 0.0 1.0
  outer loop
    vertex -415.0453583365784 199.22092903782385 10.000000000001165
    vertex -414.0453583365784 197.22092903782385 10.000000000001165
    vertex -415.0453583365784 201.82092903782384 10.000000000001165
  endloop
endfacet
facet normal 0.0 0.0 1.0
  outer loop
    vertex -415.0453583365784 201.82092903782384 10.000000000001165
    vertex -417.3453583365784 203.82092903782382 10.000000000001165
    vertex -417.3453583365784 201.82092903782384 10.000000000001165
  endloop
endfacet
facet normal 0.0 0.0 1.0
  outer loop
    vertex -417.3453583365784 203.82092903782382 10.000000000001165
    vertex -415.0453583365784 201.82092903782384 10.000000000001165
    vertex -414.0453583365784 203.82092903782382 10.000000000001165
  endloop
endfacet
facet normal 0.0 0.0 1.0
  outer loop
    vertex -414.0453583365784 203.82092903782382 10.000000000001165
    vertex -415.0453583365784 201.82092903782384 10.000000000001165
    vertex -414.0453583365784 197.22092903782385 10.000000000001165
  endloop
endfacet
facet normal 0.0 0.0 1.0
  outer loop
    vertex -456.64535833657834 197.22092903782388 10.000000000001165
    vertex -455.6453583365784 199.22092903782385 10.000000000001165
    vertex -456.64535833657834 203.82092903782387 10.000000000001165
  endloop
endfacet
facet normal 0.0 0.0 1.0
  outer loop
    vertex -455.6453583365784 199.22092903782385 10.000000000001165
    vertex -456.64535833657834 197.22092903782388 10.000000000001165
    vertex -453.3453583365784 197.22092903782385 10.000000000001165
  endloop
endfacet
facet normal 0.0 0.0 1.0
  outer loop
    vertex -455.6453583365784 199.22092903782385 10.000000000001165
    vertex -453.3453583365784 197.22092903782385 10.000000000001165
    vertex -453.3453583365784 199.22092903782385 10.000000000001165
  endloop
endfacet
facet normal 0.0 0.0 1.0
  outer loop
    vertex -456.64535833657834 203.82092903782387 10.000000000001165
    vertex -455.6453583365784 201.82092903782384 10.000000000001165
    vertex -453.3453583365784 203.82092903782387 10.000000000001165
  endloop
endfacet
facet normal 0.0 0.0 1.0
  outer loop
    vertex -455.6453583365784 201.82092903782384 10.000000000001165
    vertex -456.64535833657834 203.82092903782387 10.000000000001165
    vertex -455.6453583365784 199.22092903782385 10.000000000001165
  endloop
endfacet
facet normal 0.0 0.0 1.0
  outer loop
    vertex -453.3453583365784 203.82092903782387 10.000000000001165
    vertex -455.6453583365784 201.82092903782384 10.000000000001165
    vertex -453.3453583365784 201.82092903782384 10.000000000001165
  endloop
endfacet
facet normal -0.9701425001453295 0.0 0.24253562503634263
  outer loop
    vertex -456.64535833657834 203.82092903782387 10.000000000001165
    vertex -457.6453583365784 197.22092903782388 6.000000000001162
    vertex -456.64535833657834 197.22092903782388 10.000000000001165
  endloop
endfacet
facet normal -0.9701425001453295 0.0 0.24253562503634263
  outer loop
    vertex -457.6453583365784 197.22092903782388 6.000000000001162
    vertex -456.64535833657834 203.82092903782387 10.000000000001165
    vertex -457.6453583365784 203.82092903782387 6.000000000001162
  endloop
endfacet
facet normal 0.9701425001453295 6.23139608761652e-18 0.24253562503634263
  outer loop
    vertex -413.0453583365784 203.82092903782382 6.000000000001162
    vertex -414.0453583365784 197.22092903782385 10.000000000001165
    vertex -413.0453583365784 197.22092903782385 6.000000000001162
  endloop
endfacet
facet normal 0.9701425001453295 6.23139608761652e-18 0.24253562503634263
  outer loop
    vertex -414.0453583365784 197.22092903782385 10.000000000001165
    vertex -413.0453583365784 203.82092903782382 6.000000000001162
    vertex -414.0453583365784 203.82092903782382 10.000000000001165
  endloop
endfacet
facet normal 0.0 0.0 1.0
  outer loop
    vertex -417.3453583365784 201.82092903782384 2.0000000000011693
    vertex -453.3453583365784 203.82092903782387 2.0000000000011693
    vertex -453.3453583365784 201.82092903782384 2.0000000000011693
  endloop
endfacet
facet normal 0.0 0.0 1.0
  outer loop
    vertex -453.3453583365784 203.82092903782387 2.0000000000011693
    vertex -417.3453583365784 201.82092903782384 2.0000000000011693
    vertex -417.3453583365784 203.82092903782382 2.0000000000011693
  endloop
endfacet
facet normal 1.0 0.0 0.0
  outer loop
    vertex -453.3453583365784 203.82092903782387 2.0000000000011693
    vertex -453.3453583365784 201.82092903782384 10.000000000001165
    vertex -453.3453583365784 201.82092903782384 2.0000000000011693
  endloop
endfacet
facet normal 1.0 0.0 0.0
  outer loop
    vertex -453.3453583365784 201.82092903782384 10.000000000001165
    vertex -453.3453583365784 203.82092903782387 2.0000000000011693
    vertex -453.3453583365784 203.82092903782387 10.000000000001165
  endloop
endfacet
facet normal 1.0 0.0 0.0
  outer loop
    vertex -455.6453583365784 201.82092903782384 1.1731060567399254e-12
    vertex -455.6453583365784 199.22092903782385 10.000000000001165
    vertex -455.6453583365784 199.22092903782385 1.1731060567399254e-12
  endloop
endfacet
facet normal 1.0 0.0 0.0
  outer loop
    vertex -455.6453583365784 199.22092903782385 10.000000000001165
    vertex -455.6453583365784 201.82092903782384 1.1731060567399254e-12
    vertex -455.6453583365784 201.82092903782384 10.000000000001165
  endloop
endfacet
facet normal 1.0 0.0 0.0
  outer loop
    vertex -453.3453583365784 199.22092903782385 2.0000000000011693
    vertex -453.3453583365784 197.22092903782385 10.000000000001165
    vertex -453.3453583365784 197.22092903782385 2.0000000000011693
  endloop
endfacet
facet normal 1.0 0.0 0.0
  outer loop
    vertex -453.3453583365784 197.22092903782385 10.000000000001165
    vertex -453.3453583365784 199.22092903782385 2.0000000000011693
    vertex -453.3453583365784 199.22092903782385 10.000000000001165
  endloop
endfacet
facet normal -1.0 0.0 0.0
  outer loop
    vertex -417.3453583365784 199.22092903782385 10.000000000001165
    vertex -417.3453583365784 197.22092903782385 2.0000000000011693
    vertex -417.3453583365784 197.22092903782385 10.000000000001165
  endloop
endfacet
facet normal -1.0 0.0 0.0
  outer loop
    vertex -417.3453583365784 197.22092903782385 2.0000000000011693
    vertex -417.3453583365784 199.22092903782385 10.000000000001165
    vertex -417.3453583365784 199.22092903782385 2.0000000000011693
  endloop
endfacet
facet normal -1.0 0.0 0.0
  outer loop
    vertex -417.3453583365784 203.82092903782382 10.000000000001165
    vertex -417.3453583365784 201.82092903782384 2.0000000000011693
    vertex -417.3453583365784 201.82092903782384 10.000000000001165
  endloop
endfacet
facet normal -1.0 0.0 0.0
  outer loop
    vertex -417.3453583365784 201.82092903782384 2.0000000000011693
    vertex -417.3453583365784 203.82092903782382 10.000000000001165
    vertex -417.3453583365784 203.82092903782382 2.0000000000011693
  endloop
endfacet
facet normal 0.0 0.0 -1.0
  outer loop
    vertex -457.6453583365784 203.82092903782387 1.1731060567399254e-12
    vertex -455.6453583365784 201.82092903782384 1.1731060567399254e-12
    vertex -457.64535833657834 197.22092903782385 1.1731060567399254e-12
  endloop
endfacet
facet normal 0.0 0.0 -1.0
  outer loop
    vertex -455.6453583365784 201.82092903782384 1.1731060567399254e-12
    vertex -457.6453583365784 203.82092903782387 1.1731060567399254e-12
    vertex -413.0453583365784 203.82092903782387 1.1731060567399254e-12
  endloop
endfacet
facet normal 0.0 0.0 -1.0
  outer loop
    vertex -455.6453583365784 201.82092903782384 1.1731060567399254e-12
    vertex -413.0453583365784 203.82092903782387 1.1731060567399254e-12
    vertex -415.0453583365784 201.82092903782384 1.1731060567399254e-12
  endloop
endfacet
facet normal 0.0 0.0 -1.0
  outer loop
    vertex -415.0453583365784 201.82092903782384 1.1731060567399254e-12
    vertex -413.0453583365784 203.82092903782387 1.1731060567399254e-12
    vertex -415.0453583365784 199.22092903782385 1.1731060567399254e-12
  endloop
endfacet
facet normal 0.0 0.0 -1.0
  outer loop
    vertex -457.64535833657834 197.22092903782385 1.1731060567399254e-12
    vertex -455.6453583365784 199.22092903782385 1.1731060567399254e-12
    vertex -413.0453583365784 197.22092903782385 1.1731060567399254e-12
  endloop
endfacet
facet normal 0.0 0.0 -1.0
  outer loop
    vertex -455.6453583365784 199.22092903782385 1.1731060567399254e-12
    vertex -457.64535833657834 197.22092903782385 1.1731060567399254e-12
    vertex -455.6453583365784 201.82092903782384 1.1731060567399254e-12
  endloop
endfacet
facet normal 0.0 0.0 -1.0
  outer loop
    vertex -413.0453583365784 197.22092903782385 1.1731060567399254e-12
    vertex -455.6453583365784 199.22092903782385 1.1731060567399254e-12
    vertex -415.0453583365784 199.22092903782385 1.1731060567399254e-12
  endloop
endfacet
facet normal 0.0 0.0 -1.0
  outer loop
    vertex -413.0453583365784 197.22092903782385 1.1731060567399254e-12
    vertex -415.0453583365784 199.22092903782385 1.1731060567399254e-12
    vertex -413.0453583365784 203.82092903782387 1.1731060567399254e-12
  endloop
endfacet
facet normal -2.3460821103977696e-16 -1.0 6.507614959725912e-16
  outer loop
    vertex -457.64535833657834 197.22092903782385 1.1731060567399254e-12
    vertex -453.3453583365784 197.22092903782385 2.0000000000011693
    vertex -457.6453583365784 197.22092903782388 6.000000000001162
  endloop
endfacet
facet normal -2.3460821103977696e-16 -1.0 6.507614959725912e-16
  outer loop
    vertex -453.3453583365784 197.22092903782385 2.0000000000011693
    vertex -457.64535833657834 197.22092903782385 1.1731060567399254e-12
    vertex -417.3453583365784 197.22092903782385 2.0000000000011693
  endloop
endfacet
facet normal -2.3460821103977696e-16 -1.0 6.507614959725912e-16
  outer loop
    vertex -457.6453583365784 197.22092903782388 6.000000000001162
    vertex -453.3453583365784 197.22092903782385 2.0000000000011693
    vertex -453.3453583365784 197.22092903782385 10.000000000001165
  endloop
endfacet
facet normal -2.3460821103977696e-16 -1.0 6.507614959725912e-16
  outer loop
    vertex -457.6453583365784 197.22092903782388 6.000000000001162
    vertex -453.3453583365784 197.22092903782385 10.000000000001165
    vertex -456.64535833657834 197.22092903782388 10.000000000001165
  endloop
endfacet
facet normal -2.3460821103977696e-16 -1.0 6.507614959725912e-16
  outer loop
    vertex -413.0453583365784 197.22092903782385 1.1731060567399254e-12
    vertex -417.3453583365784 197.22092903782385 2.0000000000011693
    vertex -457.64535833657834 197.22092903782385 1.1731060567399254e-12
  endloop
endfacet
facet normal -2.3460821103977696e-16 -1.0 6.507614959725912e-16
  outer loop
    vertex -417.3453583365784 197.22092903782385 2.0000000000011693
    vertex -413.0453583365784 197.22092903782385 1.1731060567399254e-12
    vertex -413.0453583365784 197.22092903782385 6.000000000001162
  endloop
endfacet
facet normal -2.3460821103977696e-16 -1.0 6.507614959725912e-16
  outer loop
    vertex -417.3453583365784 197.22092903782385 2.0000000000011693
    vertex -413.0453583365784 197.22092903782385 6.000000000001162
    vertex -417.3453583365784 197.22092903782385 10.000000000001165
  endloop
endfacet
facet normal -2.3460821103977696e-16 -1.0 6.507614959725912e-16
  outer loop
    vertex -417.3453583365784 197.22092903782385 10.000000000001165
    vertex -413.0453583365784 197.22092903782385 6.000000000001162
    vertex -414.0453583365784 197.22092903782385 10.000000000001165
  endloop
endfacet
endsolid StevensonScreen_V1
