solid StevensonScreen_V1
facet normal 0.0 1.0 8.326672684688674e-17
  outer loop
    vertex -106.7716500948276 1392.6488915882942 -7.99999999999977
    vertex -106.7716500948276 1392.6488915882942 -10.99999999999981
    vertex -121.77165009482762 1392.6488915882942 -7.99999999999977
  endloop
endfacet
facet normal 0.0 1.0 8.326672684688674e-17
  outer loop
    vertex -109.77165009482765 1392.6488915882942 -10.99999999999981
    vertex -121.77165009482762 1392.6488915882942 -7.99999999999977
    vertex -106.7716500948276 1392.6488915882942 -10.99999999999981
  endloop
endfacet
facet normal 0.0 1.0 8.326672684688674e-17
  outer loop
    vertex -106.7716500948276 1392.6488915882942 -34.99999999999995
    vertex -109.77165009482765 1392.6488915882942 -10.99999999999981
    vertex -106.7716500948276 1392.6488915882942 -10.99999999999981
  endloop
endfacet
facet normal 0.0 1.0 8.326672684688674e-17
  outer loop
    vertex -106.7716500948276 1392.6488915882942 -37.999999999999986
    vertex -109.77165009482765 1392.6488915882942 -10.99999999999981
    vertex -106.7716500948276 1392.6488915882942 -34.99999999999995
  endloop
endfacet
facet normal 0.0 1.0 8.326672684688674e-17
  outer loop
    vertex -118.77165009482763 1392.6488915882942 -10.99999999999981
    vertex -121.77165009482762 1392.6488915882942 -7.99999999999977
    vertex -109.77165009482765 1392.6488915882942 -10.99999999999981
  endloop
endfacet
facet normal 0.0 1.0 8.326672684688674e-17
  outer loop
    vertex -118.77165009482763 1392.6488915882942 -34.99999999999995
    vertex -121.77165009482762 1392.6488915882942 -7.99999999999977
    vertex -118.77165009482763 1392.6488915882942 -10.99999999999981
  endloop
endfacet
facet normal 0.0 1.0 8.326672684688674e-17
  outer loop
    vertex -121.77165009482762 1392.6488915882942 -37.999999999999986
    vertex -109.77165009482765 1392.6488915882942 -34.99999999999959
    vertex -106.7716500948276 1392.6488915882942 -37.999999999999986
  endloop
endfacet
facet normal 0.0 1.0 8.326672684688674e-17
  outer loop
    vertex -109.77165009482765 1392.6488915882942 -10.99999999999981
    vertex -106.7716500948276 1392.6488915882942 -37.999999999999986
    vertex -109.77165009482765 1392.6488915882942 -34.99999999999959
  endloop
endfacet
facet normal 0.0 1.0 8.326672684688674e-17
  outer loop
    vertex -118.77165009482763 1392.6488915882942 -34.99999999999995
    vertex -109.77165009482765 1392.6488915882942 -34.99999999999959
    vertex -121.77165009482762 1392.6488915882942 -37.999999999999986
  endloop
endfacet
facet normal 0.0 1.0 8.326672684688674e-17
  outer loop
    vertex -121.77165009482762 1392.6488915882942 -7.99999999999977
    vertex -118.77165009482763 1392.6488915882942 -34.99999999999995
    vertex -121.77165009482762 1392.6488915882942 -37.999999999999986
  endloop
endfacet
facet normal 0.0 -1.0 -8.326672684688674e-17
  outer loop
    vertex -103.77165009482766 1383.6488915882942 -37.999999999999986
    vertex -103.77165009482766 1383.6488915882942 -7.999999999999771
    vertex -106.77312447871584 1383.6488915882942 -37.999999999999986
  endloop
endfacet
facet normal 0.0 -1.0 -8.326672684688674e-17
  outer loop
    vertex -106.7716500948276 1383.6488915882942 -7.999999999999771
    vertex -106.77312447871584 1383.6488915882942 -37.999999999999986
    vertex -103.77165009482766 1383.6488915882942 -7.999999999999771
  endloop
endfacet
facet normal -1.0 0.0 0.0
  outer loop
    vertex -121.77165009482762 1383.6488915882942 -7.999999999999771
    vertex -121.77165009482762 1392.6488915882942 -7.99999999999977
    vertex -121.77165009482762 1383.6488915882942 -37.999999999999986
  endloop
endfacet
facet normal -1.0 0.0 0.0
  outer loop
    vertex -121.77165009482762 1392.6488915882942 -37.999999999999986
    vertex -121.77165009482762 1383.6488915882942 -37.999999999999986
    vertex -121.77165009482762 1392.6488915882942 -7.99999999999977
  endloop
endfacet
facet normal 0.0 -1.0 -8.326672684688674e-17
  outer loop
    vertex -86.77165009482765 1386.6488915882942 -7.999999999999771
    vertex -93.97261198915098 1386.6488915882942 -23.749999999999797
    vertex -86.77165009482765 1386.6488915882942 -37.999999999999986
  endloop
endfacet
facet normal 0.0 -1.0 -8.326672684688674e-17
  outer loop
    vertex -103.77165009482766 1386.6488915882942 -37.999999999999986
    vertex -86.77165009482765 1386.6488915882942 -37.999999999999986
    vertex -93.97261198915098 1386.6488915882942 -23.749999999999797
  endloop
endfacet
facet normal 0.0 -1.0 -8.326672684688674e-17
  outer loop
    vertex -93.82276135539401 1386.6488915882942 -23.3882285676535
    vertex -93.97261198915098 1386.6488915882942 -23.749999999999797
    vertex -86.77165009482765 1386.6488915882942 -7.999999999999771
  endloop
endfacet
facet normal 0.0 -1.0 -8.326672684688674e-17
  outer loop
    vertex -93.77165009482763 1386.6488915882942 -22.99999999999979
    vertex -93.82276135539401 1386.6488915882942 -23.3882285676535
    vertex -86.77165009482765 1386.6488915882942 -7.999999999999771
  endloop
endfacet
facet normal 0.0 -1.0 -8.326672684688674e-17
  outer loop
    vertex -94.2109899230478 1386.6488915882942 -24.06066017177959
    vertex -103.77165009482766 1386.6488915882942 -37.999999999999986
    vertex -93.97261198915098 1386.6488915882942 -23.749999999999797
  endloop
endfacet
facet normal 0.0 -1.0 -8.326672684688674e-17
  outer loop
    vertex -94.52165009482759 1386.6488915882942 -24.29903810567637
    vertex -103.77165009482766 1386.6488915882942 -37.999999999999986
    vertex -94.2109899230478 1386.6488915882942 -24.06066017177959
  endloop
endfacet
facet normal 0.0 -1.0 -8.326672684688674e-17
  outer loop
    vertex -94.88342152717385 1386.6488915882942 -24.4488887394333
    vertex -103.77165009482766 1386.6488915882942 -37.999999999999986
    vertex -94.52165009482759 1386.6488915882942 -24.29903810567637
  endloop
endfacet
facet normal 0.0 -1.0 -8.326672684688674e-17
  outer loop
    vertex -95.2716500948276 1386.6488915882942 -24.499999999999808
    vertex -103.77165009482766 1386.6488915882942 -37.999999999999986
    vertex -94.88342152717385 1386.6488915882942 -24.4488887394333
  endloop
endfacet
facet normal 0.0 -1.0 -8.326672684688674e-17
  outer loop
    vertex -95.6598786624814 1386.6488915882942 -24.4488887394333
    vertex -103.77165009482766 1386.6488915882942 -37.999999999999986
    vertex -95.2716500948276 1386.6488915882942 -24.499999999999808
  endloop
endfacet
facet normal 0.0 -1.0 -8.326672684688674e-17
  outer loop
    vertex -96.02165009482762 1386.6488915882942 -24.29903810567637
    vertex -103.77165009482766 1386.6488915882942 -37.999999999999986
    vertex -95.6598786624814 1386.6488915882942 -24.4488887394333
  endloop
endfacet
facet normal 0.0 -1.0 -8.326672684688674e-17
  outer loop
    vertex -96.33231026660745 1386.6488915882942 -24.06066017177959
    vertex -103.77165009482766 1386.6488915882942 -37.999999999999986
    vertex -96.02165009482762 1386.6488915882942 -24.29903810567637
  endloop
endfacet
facet normal 0.0 -1.0 -8.326672684688674e-17
  outer loop
    vertex -96.57068820050428 1386.6488915882942 -23.749999999999797
    vertex -103.77165009482766 1386.6488915882942 -37.999999999999986
    vertex -96.33231026660745 1386.6488915882942 -24.06066017177959
  endloop
endfacet
facet normal 0.0 -1.0 -8.326672684688674e-17
  outer loop
    vertex -96.7205388342612 1386.6488915882942 -23.3882285676535
    vertex -103.77165009482766 1386.6488915882942 -37.999999999999986
    vertex -96.57068820050428 1386.6488915882942 -23.749999999999797
  endloop
endfacet
facet normal 0.0 -1.0 -8.326672684688674e-17
  outer loop
    vertex -96.77165009482763 1386.6488915882942 -22.99999999999979
    vertex -103.77165009482766 1386.6488915882942 -37.999999999999986
    vertex -96.7205388342612 1386.6488915882942 -23.3882285676535
  endloop
endfacet
facet normal 0.0 -1.0 -8.326672684688674e-17
  outer loop
    vertex -103.77165009482766 1386.6488915882942 -7.999999999999771
    vertex -93.97261198915098 1386.6488915882942 -22.24999999999978
    vertex -86.77165009482765 1386.6488915882942 -7.999999999999771
  endloop
endfacet
facet normal 0.0 -1.0 -8.326672684688674e-17
  outer loop
    vertex -93.82276135539401 1386.6488915882942 -22.611771432346078
    vertex -86.77165009482765 1386.6488915882942 -7.999999999999771
    vertex -93.97261198915098 1386.6488915882942 -22.24999999999978
  endloop
endfacet
facet normal 0.0 -1.0 -8.326672684688674e-17
  outer loop
    vertex -93.77165009482763 1386.6488915882942 -22.99999999999979
    vertex -86.77165009482765 1386.6488915882942 -7.999999999999771
    vertex -93.82276135539401 1386.6488915882942 -22.611771432346078
  endloop
endfacet
facet normal 0.0 -1.0 -8.326672684688674e-17
  outer loop
    vertex -94.2109899230478 1386.6488915882942 -21.93933982821999
    vertex -93.97261198915098 1386.6488915882942 -22.24999999999978
    vertex -103.77165009482766 1386.6488915882942 -7.999999999999771
  endloop
endfacet
facet normal 0.0 -1.0 -8.326672684688674e-17
  outer loop
    vertex -94.52165009482765 1386.6488915882942 -21.700961894323207
    vertex -94.2109899230478 1386.6488915882942 -21.93933982821999
    vertex -103.77165009482766 1386.6488915882942 -7.999999999999771
  endloop
endfacet
facet normal 0.0 -1.0 -8.326672684688674e-17
  outer loop
    vertex -94.88342152717385 1386.6488915882942 -21.551111260566277
    vertex -94.52165009482765 1386.6488915882942 -21.700961894323207
    vertex -103.77165009482766 1386.6488915882942 -7.999999999999771
  endloop
endfacet
facet normal 0.0 -1.0 -8.326672684688674e-17
  outer loop
    vertex -95.2716500948276 1386.6488915882942 -21.49999999999977
    vertex -94.88342152717385 1386.6488915882942 -21.551111260566277
    vertex -103.77165009482766 1386.6488915882942 -7.999999999999771
  endloop
endfacet
facet normal 0.0 -1.0 -8.326672684688674e-17
  outer loop
    vertex -95.6598786624814 1386.6488915882942 -21.551111260566277
    vertex -95.2716500948276 1386.6488915882942 -21.49999999999977
    vertex -103.77165009482766 1386.6488915882942 -7.999999999999771
  endloop
endfacet
facet normal 0.0 -1.0 -8.326672684688674e-17
  outer loop
    vertex -96.02165009482762 1386.6488915882942 -21.700961894323207
    vertex -95.6598786624814 1386.6488915882942 -21.551111260566277
    vertex -103.77165009482766 1386.6488915882942 -7.999999999999771
  endloop
endfacet
facet normal 0.0 -1.0 -8.326672684688674e-17
  outer loop
    vertex -96.33231026660745 1386.6488915882942 -21.93933982821999
    vertex -96.02165009482762 1386.6488915882942 -21.700961894323207
    vertex -103.77165009482766 1386.6488915882942 -7.999999999999771
  endloop
endfacet
facet normal 0.0 -1.0 -8.326672684688674e-17
  outer loop
    vertex -96.57068820050428 1386.6488915882942 -22.24999999999978
    vertex -96.33231026660745 1386.6488915882942 -21.93933982821999
    vertex -103.77165009482766 1386.6488915882942 -7.999999999999771
  endloop
endfacet
facet normal 0.0 -1.0 -8.326672684688674e-17
  outer loop
    vertex -96.7205388342612 1386.6488915882942 -22.611771432346078
    vertex -96.57068820050428 1386.6488915882942 -22.24999999999978
    vertex -103.77165009482766 1386.6488915882942 -7.999999999999771
  endloop
endfacet
facet normal 0.0 -1.0 -8.326672684688674e-17
  outer loop
    vertex -96.77165009482763 1386.6488915882942 -22.99999999999979
    vertex -96.7205388342612 1386.6488915882942 -22.611771432346078
    vertex -103.77165009482766 1386.6488915882942 -7.999999999999771
  endloop
endfacet
facet normal 0.0 -1.0 -8.326672684688674e-17
  outer loop
    vertex -103.77165009482766 1386.6488915882942 -37.999999999999986
    vertex -96.77165009482763 1386.6488915882942 -22.99999999999979
    vertex -103.77165009482766 1386.6488915882942 -7.999999999999771
  endloop
endfacet
facet normal 1.0 0.0 0.0
  outer loop
    vertex -103.77165009482766 1386.6488915882942 -7.999999999999771
    vertex -103.77165009482766 1383.6488915882942 -7.999999999999771
    vertex -103.77165009482766 1386.6488915882942 -37.999999999999986
  endloop
endfacet
facet normal 1.0 0.0 0.0
  outer loop
    vertex -103.77165009482766 1383.6488915882942 -37.999999999999986
    vertex -103.77165009482766 1386.6488915882942 -37.999999999999986
    vertex -103.77165009482766 1383.6488915882942 -7.999999999999771
  endloop
endfacet
facet normal 1.0 -3.7599553100638635e-15 -3.2016342254706798e-31
  outer loop
    vertex -86.77165009482765 1389.6488915882942 -7.999999999999771
    vertex -86.77165009482765 1386.6488915882942 -7.999999999999771
    vertex -86.77165009482765 1389.6488915882942 -10.99999999999981
  endloop
endfacet
facet normal 1.0 -3.7599553100638635e-15 -3.2016342254706798e-31
  outer loop
    vertex -86.77165009482765 1386.6488915882942 -37.999999999999986
    vertex -86.77165009482765 1389.6488915882942 -10.99999999999981
    vertex -86.77165009482765 1386.6488915882942 -7.999999999999771
  endloop
endfacet
facet normal 1.0 -3.7599553100638635e-15 -3.2016342254706798e-31
  outer loop
    vertex -86.77165009482765 1389.6488915882942 -34.99999999999995
    vertex -86.77165009482765 1389.6488915882942 -10.99999999999981
    vertex -86.77165009482765 1386.6488915882942 -37.999999999999986
  endloop
endfacet
facet normal 1.0 -3.7599553100638635e-15 -3.2016342254706798e-31
  outer loop
    vertex -86.77165009482765 1389.6488915882942 -37.999999999999986
    vertex -86.77165009482765 1389.6488915882942 -34.99999999999995
    vertex -86.77165009482765 1386.6488915882942 -37.999999999999986
  endloop
endfacet
facet normal 1.0 0.0 0.0
  outer loop
    vertex -118.77165009482763 1392.6488915882942 -10.99999999999981
    vertex -118.77165009482763 1389.6488915882942 -10.99999999999981
    vertex -118.77165009482763 1392.6488915882942 -34.99999999999995
  endloop
endfacet
facet normal 1.0 0.0 0.0
  outer loop
    vertex -118.77165009482763 1389.6488915882942 -34.99999999999995
    vertex -118.77165009482763 1392.6488915882942 -34.99999999999995
    vertex -118.77165009482763 1389.6488915882942 -10.99999999999981
  endloop
endfacet
facet normal 0.0 8.326672684688674e-17 -1.0
  outer loop
    vertex -86.77165009482765 1386.6488915882942 -37.999999999999986
    vertex -103.77165009482766 1386.6488915882942 -37.999999999999986
    vertex -86.77165009482765 1389.6488915882942 -37.999999999999986
  endloop
endfacet
facet normal 0.0 8.326672684688674e-17 -1.0
  outer loop
    vertex -103.77165009482766 1383.6488915882942 -37.999999999999986
    vertex -106.77312447871584 1383.6488915882942 -37.999999999999986
    vertex -103.77165009482766 1386.6488915882942 -37.999999999999986
  endloop
endfacet
facet normal 0.0 8.326672684688674e-17 -1.0
  outer loop
    vertex -109.77312447871584 1383.6488915882942 -37.999999999999986
    vertex -103.77165009482766 1386.6488915882942 -37.999999999999986
    vertex -106.77312447871584 1383.6488915882942 -37.999999999999986
  endloop
endfacet
facet normal 0.0 8.326672684688674e-17 -1.0
  outer loop
    vertex -121.77165009482762 1383.6488915882942 -37.999999999999986
    vertex -103.77165009482766 1386.6488915882942 -37.999999999999986
    vertex -109.77312447871584 1383.6488915882942 -37.999999999999986
  endloop
endfacet
facet normal 0.0 8.326672684688674e-17 -1.0
  outer loop
    vertex -121.77165009482762 1392.6488915882942 -37.999999999999986
    vertex -103.77165009482766 1386.6488915882942 -37.999999999999986
    vertex -121.77165009482762 1383.6488915882942 -37.999999999999986
  endloop
endfacet
facet normal 0.0 8.326672684688674e-17 -1.0
  outer loop
    vertex -86.77165009482765 1389.6488915882942 -37.999999999999986
    vertex -103.77165009482766 1386.6488915882942 -37.999999999999986
    vertex -121.77165009482762 1392.6488915882942 -37.999999999999986
  endloop
endfacet
facet normal 0.0 8.326672684688674e-17 -1.0
  outer loop
    vertex -106.7716500948276 1392.6488915882942 -37.999999999999986
    vertex -86.77165009482765 1389.6488915882942 -37.999999999999986
    vertex -121.77165009482762 1392.6488915882942 -37.999999999999986
  endloop
endfacet
facet normal 0.0 8.326672684688674e-17 -1.0
  outer loop
    vertex -106.77312447871584 1380.6488915882942 -37.999999999999986
    vertex -109.77312447871584 1380.6488915882942 -37.999999999999986
    vertex -106.77312447871584 1383.6488915882942 -37.999999999999986
  endloop
endfacet
facet normal 0.0 8.326672684688674e-17 -1.0
  outer loop
    vertex -109.77312447871584 1383.6488915882942 -37.999999999999986
    vertex -106.77312447871584 1383.6488915882942 -37.999999999999986
    vertex -109.77312447871584 1380.6488915882942 -37.999999999999986
  endloop
endfacet
facet normal 0.0 1.0 8.326672684688674e-17
  outer loop
    vertex -109.77165009482765 1389.6488915882942 -34.99999999999959
    vertex -112.82276135539404 1389.6488915882942 -22.611771432345897
    vertex -109.77165009482765 1389.6488915882942 -10.99999999999981
  endloop
endfacet
facet normal 0.0 1.0 8.326672684688674e-17
  outer loop
    vertex -112.97261198915099 1389.6488915882942 -22.2499999999996
    vertex -109.77165009482765 1389.6488915882942 -10.99999999999981
    vertex -112.82276135539404 1389.6488915882942 -22.611771432345897
  endloop
endfacet
facet normal 0.0 1.0 8.326672684688674e-17
  outer loop
    vertex -118.77165009482763 1389.6488915882942 -10.99999999999981
    vertex -109.77165009482765 1389.6488915882942 -10.99999999999981
    vertex -112.97261198915099 1389.6488915882942 -22.2499999999996
  endloop
endfacet
facet normal 0.0 1.0 8.326672684688674e-17
  outer loop
    vertex -112.77165009482765 1389.6488915882942 -22.99999999999961
    vertex -112.82276135539404 1389.6488915882942 -22.611771432345897
    vertex -109.77165009482765 1389.6488915882942 -34.99999999999959
  endloop
endfacet
facet normal 0.0 1.0 8.326672684688674e-17
  outer loop
    vertex -113.21098992304782 1389.6488915882942 -21.939339828219808
    vertex -118.77165009482763 1389.6488915882942 -10.99999999999981
    vertex -112.97261198915099 1389.6488915882942 -22.2499999999996
  endloop
endfacet
facet normal 0.0 1.0 8.326672684688674e-17
  outer loop
    vertex -113.52165009482765 1389.6488915882942 -21.700961894323026
    vertex -118.77165009482763 1389.6488915882942 -10.99999999999981
    vertex -113.21098992304782 1389.6488915882942 -21.939339828219808
  endloop
endfacet
facet normal 0.0 1.0 8.326672684688674e-17
  outer loop
    vertex -113.88342152717387 1389.6488915882942 -21.551111260566095
    vertex -118.77165009482763 1389.6488915882942 -10.99999999999981
    vertex -113.52165009482765 1389.6488915882942 -21.700961894323026
  endloop
endfacet
facet normal 0.0 1.0 8.326672684688674e-17
  outer loop
    vertex -114.27165009482763 1389.6488915882942 -21.499999999999588
    vertex -118.77165009482763 1389.6488915882942 -10.99999999999981
    vertex -113.88342152717387 1389.6488915882942 -21.551111260566095
  endloop
endfacet
facet normal 0.0 1.0 8.326672684688674e-17
  outer loop
    vertex -114.65987866248142 1389.6488915882942 -21.551111260566095
    vertex -118.77165009482763 1389.6488915882942 -10.99999999999981
    vertex -114.27165009482763 1389.6488915882942 -21.499999999999588
  endloop
endfacet
facet normal 0.0 1.0 8.326672684688674e-17
  outer loop
    vertex -115.02165009482765 1389.6488915882942 -21.700961894323026
    vertex -118.77165009482763 1389.6488915882942 -10.99999999999981
    vertex -114.65987866248142 1389.6488915882942 -21.551111260566095
  endloop
endfacet
facet normal 0.0 1.0 8.326672684688674e-17
  outer loop
    vertex -115.33231026660746 1389.6488915882942 -21.939339828219808
    vertex -118.77165009482763 1389.6488915882942 -10.99999999999981
    vertex -115.02165009482765 1389.6488915882942 -21.700961894323026
  endloop
endfacet
facet normal 0.0 1.0 8.326672684688674e-17
  outer loop
    vertex -115.57068820050429 1389.6488915882942 -22.2499999999996
    vertex -118.77165009482763 1389.6488915882942 -10.99999999999981
    vertex -115.33231026660746 1389.6488915882942 -21.939339828219808
  endloop
endfacet
facet normal 0.0 1.0 8.326672684688674e-17
  outer loop
    vertex -115.72053883426125 1389.6488915882942 -22.611771432345897
    vertex -118.77165009482763 1389.6488915882942 -10.99999999999981
    vertex -115.57068820050429 1389.6488915882942 -22.2499999999996
  endloop
endfacet
facet normal 0.0 1.0 8.326672684688674e-17
  outer loop
    vertex -115.77165009482763 1389.6488915882942 -22.99999999999961
    vertex -118.77165009482763 1389.6488915882942 -10.99999999999981
    vertex -115.72053883426125 1389.6488915882942 -22.611771432345897
  endloop
endfacet
facet normal 0.0 1.0 8.326672684688674e-17
  outer loop
    vertex -118.77165009482763 1389.6488915882942 -34.99999999999995
    vertex -112.97261198915099 1389.6488915882942 -23.74999999999962
    vertex -109.77165009482765 1389.6488915882942 -34.99999999999959
  endloop
endfacet
facet normal 0.0 1.0 8.326672684688674e-17
  outer loop
    vertex -112.82276135539404 1389.6488915882942 -23.388228567653318
    vertex -109.77165009482765 1389.6488915882942 -34.99999999999959
    vertex -112.97261198915099 1389.6488915882942 -23.74999999999962
  endloop
endfacet
facet normal 0.0 1.0 8.326672684688674e-17
  outer loop
    vertex -112.77165009482765 1389.6488915882942 -22.99999999999961
    vertex -109.77165009482765 1389.6488915882942 -34.99999999999959
    vertex -112.82276135539404 1389.6488915882942 -23.388228567653318
  endloop
endfacet
facet normal 0.0 1.0 8.326672684688674e-17
  outer loop
    vertex -113.21098992304782 1389.6488915882942 -24.06066017177941
    vertex -112.97261198915099 1389.6488915882942 -23.74999999999962
    vertex -118.77165009482763 1389.6488915882942 -34.99999999999995
  endloop
endfacet
facet normal 0.0 1.0 8.326672684688674e-17
  outer loop
    vertex -113.52165009482763 1389.6488915882942 -24.29903810567619
    vertex -113.21098992304782 1389.6488915882942 -24.06066017177941
    vertex -118.77165009482763 1389.6488915882942 -34.99999999999995
  endloop
endfacet
facet normal 0.0 1.0 8.326672684688674e-17
  outer loop
    vertex -113.88342152717387 1389.6488915882942 -24.44888873943312
    vertex -113.52165009482763 1389.6488915882942 -24.29903810567619
    vertex -118.77165009482763 1389.6488915882942 -34.99999999999995
  endloop
endfacet
facet normal 0.0 1.0 8.326672684688674e-17
  outer loop
    vertex -114.27165009482763 1389.6488915882942 -24.499999999999627
    vertex -113.88342152717387 1389.6488915882942 -24.44888873943312
    vertex -118.77165009482763 1389.6488915882942 -34.99999999999995
  endloop
endfacet
facet normal 0.0 1.0 8.326672684688674e-17
  outer loop
    vertex -114.65987866248142 1389.6488915882942 -24.44888873943312
    vertex -114.27165009482763 1389.6488915882942 -24.499999999999627
    vertex -118.77165009482763 1389.6488915882942 -34.99999999999995
  endloop
endfacet
facet normal 0.0 1.0 8.326672684688674e-17
  outer loop
    vertex -115.02165009482763 1389.6488915882942 -24.29903810567619
    vertex -114.65987866248142 1389.6488915882942 -24.44888873943312
    vertex -118.77165009482763 1389.6488915882942 -34.99999999999995
  endloop
endfacet
facet normal 0.0 1.0 8.326672684688674e-17
  outer loop
    vertex -115.33231026660746 1389.6488915882942 -24.06066017177941
    vertex -115.02165009482763 1389.6488915882942 -24.29903810567619
    vertex -118.77165009482763 1389.6488915882942 -34.99999999999995
  endloop
endfacet
facet normal 0.0 1.0 8.326672684688674e-17
  outer loop
    vertex -115.57068820050429 1389.6488915882942 -23.74999999999962
    vertex -115.33231026660746 1389.6488915882942 -24.06066017177941
    vertex -118.77165009482763 1389.6488915882942 -34.99999999999995
  endloop
endfacet
facet normal 0.0 1.0 8.326672684688674e-17
  outer loop
    vertex -115.72053883426125 1389.6488915882942 -23.388228567653318
    vertex -115.57068820050429 1389.6488915882942 -23.74999999999962
    vertex -118.77165009482763 1389.6488915882942 -34.99999999999995
  endloop
endfacet
facet normal 0.0 1.0 8.326672684688674e-17
  outer loop
    vertex -115.77165009482763 1389.6488915882942 -22.99999999999961
    vertex -115.72053883426125 1389.6488915882942 -23.388228567653318
    vertex -118.77165009482763 1389.6488915882942 -34.99999999999995
  endloop
endfacet
facet normal 0.0 1.0 8.326672684688674e-17
  outer loop
    vertex -118.77165009482763 1389.6488915882942 -10.99999999999981
    vertex -115.77165009482763 1389.6488915882942 -22.99999999999961
    vertex -118.77165009482763 1389.6488915882942 -34.99999999999995
  endloop
endfacet
facet normal 0.14834045293024464 0.9889363528682975 6.357415178423567e-16
  outer loop
    vertex -86.77165009482765 1389.6488915882942 -7.999999999999771
    vertex -86.77165009482765 1389.6488915882942 -10.99999999999981
    vertex -106.7716500948276 1392.6488915882942 -7.99999999999977
  endloop
endfacet
facet normal 0.14834045293024464 0.9889363528682975 6.357415178423567e-16
  outer loop
    vertex -106.7716500948276 1392.6488915882942 -10.99999999999981
    vertex -106.7716500948276 1392.6488915882942 -7.99999999999977
    vertex -86.77165009482765 1389.6488915882942 -10.99999999999981
  endloop
endfacet
facet normal 0.0 -8.326672684688674e-17 1.0
  outer loop
    vertex -121.77165009482762 1383.6488915882942 -7.999999999999771
    vertex -109.7716500948276 1383.6488915882942 -7.999999999999771
    vertex -121.77165009482762 1392.6488915882942 -7.99999999999977
  endloop
endfacet
facet normal 0.0 -8.326672684688674e-17 1.0
  outer loop
    vertex -106.7716500948276 1383.6488915882942 -7.999999999999771
    vertex -121.77165009482762 1392.6488915882942 -7.99999999999977
    vertex -109.7716500948276 1383.6488915882942 -7.999999999999771
  endloop
endfacet
facet normal 0.0 -8.326672684688674e-17 1.0
  outer loop
    vertex -103.77165009482766 1383.6488915882942 -7.999999999999771
    vertex -121.77165009482762 1392.6488915882942 -7.99999999999977
    vertex -106.7716500948276 1383.6488915882942 -7.999999999999771
  endloop
endfacet
facet normal 0.0 -8.326672684688674e-17 1.0
  outer loop
    vertex -103.77165009482766 1386.6488915882942 -7.999999999999771
    vertex -121.77165009482762 1392.6488915882942 -7.99999999999977
    vertex -103.77165009482766 1383.6488915882942 -7.999999999999771
  endloop
endfacet
facet normal 0.0 -8.326672684688674e-17 1.0
  outer loop
    vertex -86.77165009482765 1386.6488915882942 -7.999999999999771
    vertex -121.77165009482762 1392.6488915882942 -7.99999999999977
    vertex -103.77165009482766 1386.6488915882942 -7.999999999999771
  endloop
endfacet
facet normal 0.0 -8.326672684688674e-17 1.0
  outer loop
    vertex -86.77165009482765 1389.6488915882942 -7.999999999999771
    vertex -121.77165009482762 1392.6488915882942 -7.99999999999977
    vertex -86.77165009482765 1386.6488915882942 -7.999999999999771
  endloop
endfacet
facet normal 0.0 -8.326672684688674e-17 1.0
  outer loop
    vertex -106.7716500948276 1392.6488915882942 -7.99999999999977
    vertex -121.77165009482762 1392.6488915882942 -7.99999999999977
    vertex -86.77165009482765 1389.6488915882942 -7.999999999999771
  endloop
endfacet
facet normal 0.0 -8.326672684688674e-17 1.0
  outer loop
    vertex -109.7716500948276 1380.6488915882942 -7.999999999999771
    vertex -106.7716500948276 1380.6488915882942 -7.999999999999771
    vertex -109.7716500948276 1383.6488915882942 -7.999999999999771
  endloop
endfacet
facet normal 0.0 -8.326672684688674e-17 1.0
  outer loop
    vertex -106.7716500948276 1383.6488915882942 -7.999999999999771
    vertex -109.7716500948276 1383.6488915882942 -7.999999999999771
    vertex -106.7716500948276 1380.6488915882942 -7.999999999999771
  endloop
endfacet
facet normal 1.0 0.0 0.0
  outer loop
    vertex -106.7716500948276 1392.6488915882942 -10.99999999999981
    vertex -106.7716500948276 1389.6488915882942 -10.99999999999981
    vertex -106.7716500948276 1392.6488915882942 -34.99999999999995
  endloop
endfacet
facet normal 1.0 0.0 0.0
  outer loop
    vertex -106.7716500948276 1389.6488915882942 -34.99999999999959
    vertex -106.7716500948276 1392.6488915882942 -34.99999999999995
    vertex -106.7716500948276 1389.6488915882942 -10.99999999999981
  endloop
endfacet
facet normal 0.0 1.0 8.326672684688674e-17
  outer loop
    vertex -86.77165009482765 1389.6488915882942 -34.99999999999995
    vertex -93.97261198915098 1389.6488915882942 -22.24999999999978
    vertex -86.77165009482765 1389.6488915882942 -10.99999999999981
  endloop
endfacet
facet normal 0.0 1.0 8.326672684688674e-17
  outer loop
    vertex -94.2109899230478 1389.6488915882942 -21.93933982821999
    vertex -86.77165009482765 1389.6488915882942 -10.99999999999981
    vertex -93.97261198915098 1389.6488915882942 -22.24999999999978
  endloop
endfacet
facet normal 0.0 1.0 8.326672684688674e-17
  outer loop
    vertex -106.7716500948276 1389.6488915882942 -10.99999999999981
    vertex -86.77165009482765 1389.6488915882942 -10.99999999999981
    vertex -94.2109899230478 1389.6488915882942 -21.93933982821999
  endloop
endfacet
facet normal 0.0 1.0 8.326672684688674e-17
  outer loop
    vertex -93.82276135539401 1389.6488915882942 -22.611771432346078
    vertex -93.97261198915098 1389.6488915882942 -22.24999999999978
    vertex -86.77165009482765 1389.6488915882942 -34.99999999999995
  endloop
endfacet
facet normal 0.0 1.0 8.326672684688674e-17
  outer loop
    vertex -93.77165009482763 1389.6488915882942 -22.99999999999979
    vertex -93.82276135539401 1389.6488915882942 -22.611771432346078
    vertex -86.77165009482765 1389.6488915882942 -34.99999999999995
  endloop
endfacet
facet normal 0.0 1.0 8.326672684688674e-17
  outer loop
    vertex -94.52165009482765 1389.6488915882942 -21.700961894323207
    vertex -106.7716500948276 1389.6488915882942 -10.99999999999981
    vertex -94.2109899230478 1389.6488915882942 -21.93933982821999
  endloop
endfacet
facet normal 0.0 1.0 8.326672684688674e-17
  outer loop
    vertex -94.88342152717385 1389.6488915882942 -21.551111260566277
    vertex -106.7716500948276 1389.6488915882942 -10.99999999999981
    vertex -94.52165009482765 1389.6488915882942 -21.700961894323207
  endloop
endfacet
facet normal 0.0 1.0 8.326672684688674e-17
  outer loop
    vertex -95.2716500948276 1389.6488915882942 -21.49999999999977
    vertex -106.7716500948276 1389.6488915882942 -10.99999999999981
    vertex -94.88342152717385 1389.6488915882942 -21.551111260566277
  endloop
endfacet
facet normal 0.0 1.0 8.326672684688674e-17
  outer loop
    vertex -95.6598786624814 1389.6488915882942 -21.551111260566277
    vertex -106.7716500948276 1389.6488915882942 -10.99999999999981
    vertex -95.2716500948276 1389.6488915882942 -21.49999999999977
  endloop
endfacet
facet normal 0.0 1.0 8.326672684688674e-17
  outer loop
    vertex -96.02165009482762 1389.6488915882942 -21.700961894323207
    vertex -106.7716500948276 1389.6488915882942 -10.99999999999981
    vertex -95.6598786624814 1389.6488915882942 -21.551111260566277
  endloop
endfacet
facet normal 0.0 1.0 8.326672684688674e-17
  outer loop
    vertex -96.33231026660745 1389.6488915882942 -21.93933982821999
    vertex -106.7716500948276 1389.6488915882942 -10.99999999999981
    vertex -96.02165009482762 1389.6488915882942 -21.700961894323207
  endloop
endfacet
facet normal 0.0 1.0 8.326672684688674e-17
  outer loop
    vertex -96.57068820050428 1389.6488915882942 -22.24999999999978
    vertex -106.7716500948276 1389.6488915882942 -10.99999999999981
    vertex -96.33231026660745 1389.6488915882942 -21.93933982821999
  endloop
endfacet
facet normal 0.0 1.0 8.326672684688674e-17
  outer loop
    vertex -96.7205388342612 1389.6488915882942 -22.611771432346078
    vertex -106.7716500948276 1389.6488915882942 -10.99999999999981
    vertex -96.57068820050428 1389.6488915882942 -22.24999999999978
  endloop
endfacet
facet normal 0.0 1.0 8.326672684688674e-17
  outer loop
    vertex -96.77165009482763 1389.6488915882942 -22.99999999999979
    vertex -106.7716500948276 1389.6488915882942 -10.99999999999981
    vertex -96.7205388342612 1389.6488915882942 -22.611771432346078
  endloop
endfacet
facet normal 0.0 1.0 8.326672684688674e-17
  outer loop
    vertex -106.7716500948276 1389.6488915882942 -34.99999999999959
    vertex -94.2109899230478 1389.6488915882942 -24.06066017177959
    vertex -86.77165009482765 1389.6488915882942 -34.99999999999995
  endloop
endfacet
facet normal 0.0 1.0 8.326672684688674e-17
  outer loop
    vertex -93.97261198915098 1389.6488915882942 -23.749999999999797
    vertex -86.77165009482765 1389.6488915882942 -34.99999999999995
    vertex -94.2109899230478 1389.6488915882942 -24.06066017177959
  endloop
endfacet
facet normal 0.0 1.0 8.326672684688674e-17
  outer loop
    vertex -93.82276135539401 1389.6488915882942 -23.3882285676535
    vertex -86.77165009482765 1389.6488915882942 -34.99999999999995
    vertex -93.97261198915098 1389.6488915882942 -23.749999999999797
  endloop
endfacet
facet normal 0.0 1.0 8.326672684688674e-17
  outer loop
    vertex -93.77165009482763 1389.6488915882942 -22.99999999999979
    vertex -86.77165009482765 1389.6488915882942 -34.99999999999995
    vertex -93.82276135539401 1389.6488915882942 -23.3882285676535
  endloop
endfacet
facet normal 0.0 1.0 8.326672684688674e-17
  outer loop
    vertex -94.52165009482759 1389.6488915882942 -24.29903810567637
    vertex -94.2109899230478 1389.6488915882942 -24.06066017177959
    vertex -106.7716500948276 1389.6488915882942 -34.99999999999959
  endloop
endfacet
facet normal 0.0 1.0 8.326672684688674e-17
  outer loop
    vertex -94.88342152717385 1389.6488915882942 -24.4488887394333
    vertex -94.52165009482759 1389.6488915882942 -24.29903810567637
    vertex -106.7716500948276 1389.6488915882942 -34.99999999999959
  endloop
endfacet
facet normal 0.0 1.0 8.326672684688674e-17
  outer loop
    vertex -95.2716500948276 1389.6488915882942 -24.499999999999808
    vertex -94.88342152717385 1389.6488915882942 -24.4488887394333
    vertex -106.7716500948276 1389.6488915882942 -34.99999999999959
  endloop
endfacet
facet normal 0.0 1.0 8.326672684688674e-17
  outer loop
    vertex -95.6598786624814 1389.6488915882942 -24.4488887394333
    vertex -95.2716500948276 1389.6488915882942 -24.499999999999808
    vertex -106.7716500948276 1389.6488915882942 -34.99999999999959
  endloop
endfacet
facet normal 0.0 1.0 8.326672684688674e-17
  outer loop
    vertex -96.02165009482762 1389.6488915882942 -24.29903810567637
    vertex -95.6598786624814 1389.6488915882942 -24.4488887394333
    vertex -106.7716500948276 1389.6488915882942 -34.99999999999959
  endloop
endfacet
facet normal 0.0 1.0 8.326672684688674e-17
  outer loop
    vertex -96.33231026660745 1389.6488915882942 -24.06066017177959
    vertex -96.02165009482762 1389.6488915882942 -24.29903810567637
    vertex -106.7716500948276 1389.6488915882942 -34.99999999999959
  endloop
endfacet
facet normal 0.0 1.0 8.326672684688674e-17
  outer loop
    vertex -96.57068820050428 1389.6488915882942 -23.749999999999797
    vertex -96.33231026660745 1389.6488915882942 -24.06066017177959
    vertex -106.7716500948276 1389.6488915882942 -34.99999999999959
  endloop
endfacet
facet normal 0.0 1.0 8.326672684688674e-17
  outer loop
    vertex -96.7205388342612 1389.6488915882942 -23.3882285676535
    vertex -96.57068820050428 1389.6488915882942 -23.749999999999797
    vertex -106.7716500948276 1389.6488915882942 -34.99999999999959
  endloop
endfacet
facet normal 0.0 1.0 8.326672684688674e-17
  outer loop
    vertex -96.77165009482763 1389.6488915882942 -22.99999999999979
    vertex -96.7205388342612 1389.6488915882942 -23.3882285676535
    vertex -106.7716500948276 1389.6488915882942 -34.99999999999959
  endloop
endfacet
facet normal 0.0 1.0 8.326672684688674e-17
  outer loop
    vertex -106.7716500948276 1389.6488915882942 -10.99999999999981
    vertex -96.77165009482763 1389.6488915882942 -22.99999999999979
    vertex -106.7716500948276 1389.6488915882942 -34.99999999999959
  endloop
endfacet
facet normal -1.0 0.0 0.0
  outer loop
    vertex -109.77165009482765 1389.6488915882942 -10.99999999999981
    vertex -109.77165009482765 1392.6488915882942 -10.99999999999981
    vertex -109.77165009482765 1389.6488915882942 -34.99999999999959
  endloop
endfacet
facet normal -1.0 0.0 0.0
  outer loop
    vertex -109.77165009482765 1392.6488915882942 -34.99999999999959
    vertex -109.77165009482765 1389.6488915882942 -34.99999999999959
    vertex -109.77165009482765 1392.6488915882942 -10.99999999999981
  endloop
endfacet
facet normal -2.0053094987007257e-14 -8.326672684688843e-17 1.0
  outer loop
    vertex -118.77165009482763 1389.6488915882942 -34.99999999999995
    vertex -109.77165009482765 1389.6488915882942 -34.99999999999959
    vertex -118.77165009482763 1392.6488915882942 -34.99999999999995
  endloop
endfacet
facet normal -2.0053094987007257e-14 -8.326672684688843e-17 1.0
  outer loop
    vertex -109.77165009482765 1392.6488915882942 -34.99999999999959
    vertex -118.77165009482763 1392.6488915882942 -34.99999999999995
    vertex -109.77165009482765 1389.6488915882942 -34.99999999999959
  endloop
endfacet
facet normal 0.0 8.326672684688674e-17 -1.0
  outer loop
    vertex -86.77165009482765 1389.6488915882942 -10.99999999999981
    vertex -106.7716500948276 1389.6488915882942 -10.99999999999981
    vertex -106.7716500948276 1392.6488915882942 -10.99999999999981
  endloop
endfacet
facet normal 0.14834045293024464 0.9889363528682975 -4.71050531515875e-16
  outer loop
    vertex -86.77165009482765 1389.6488915882942 -34.99999999999995
    vertex -86.77165009482765 1389.6488915882942 -37.999999999999986
    vertex -106.7716500948276 1392.6488915882942 -34.99999999999995
  endloop
endfacet
facet normal 0.14834045293024464 0.9889363528682975 -4.71050531515875e-16
  outer loop
    vertex -106.7716500948276 1392.6488915882942 -37.999999999999986
    vertex -106.7716500948276 1392.6488915882942 -34.99999999999995
    vertex -86.77165009482765 1389.6488915882942 -37.999999999999986
  endloop
endfacet
facet normal 9.023892744153268e-15 6.007601823417492e-14 1.0
  outer loop
    vertex -106.7716500948276 1389.6488915882942 -34.99999999999959
    vertex -86.77165009482765 1389.6488915882942 -34.99999999999995
    vertex -106.7716500948276 1392.6488915882942 -34.99999999999995
  endloop
endfacet
facet normal 0.0 8.326672684688674e-17 -1.0
  outer loop
    vertex -109.77165009482765 1389.6488915882942 -10.99999999999981
    vertex -118.77165009482763 1389.6488915882942 -10.99999999999981
    vertex -109.77165009482765 1392.6488915882942 -10.99999999999981
  endloop
endfacet
facet normal 0.0 8.326672684688674e-17 -1.0
  outer loop
    vertex -118.77165009482763 1392.6488915882942 -10.99999999999981
    vertex -109.77165009482765 1392.6488915882942 -10.99999999999981
    vertex -118.77165009482763 1389.6488915882942 -10.99999999999981
  endloop
endfacet
facet normal 0.0 -1.0 -8.326672684688674e-17
  outer loop
    vertex -112.77165009482765 1383.6488915882942 -22.99999999999961
    vertex -112.82276135539404 1383.6488915882942 -23.388228567653318
    vertex -109.77312447871584 1383.6488915882942 -37.999999999999986
  endloop
endfacet
facet normal 0.0 -1.0 -8.326672684688674e-17
  outer loop
    vertex -112.97261198915099 1383.6488915882942 -23.74999999999962
    vertex -109.77312447871584 1383.6488915882942 -37.999999999999986
    vertex -112.82276135539404 1383.6488915882942 -23.388228567653318
  endloop
endfacet
facet normal 0.0 -1.0 -8.326672684688674e-17
  outer loop
    vertex -121.77165009482762 1383.6488915882942 -37.999999999999986
    vertex -109.77312447871584 1383.6488915882942 -37.999999999999986
    vertex -112.97261198915099 1383.6488915882942 -23.74999999999962
  endloop
endfacet
facet normal 0.0 -1.0 -8.326672684688674e-17
  outer loop
    vertex -113.21098992304782 1383.6488915882942 -24.06066017177941
    vertex -121.77165009482762 1383.6488915882942 -37.999999999999986
    vertex -112.97261198915099 1383.6488915882942 -23.74999999999962
  endloop
endfacet
facet normal 0.0 -1.0 -8.326672684688674e-17
  outer loop
    vertex -113.52165009482763 1383.6488915882942 -24.29903810567619
    vertex -121.77165009482762 1383.6488915882942 -37.999999999999986
    vertex -113.21098992304782 1383.6488915882942 -24.06066017177941
  endloop
endfacet
facet normal 0.0 -1.0 -8.326672684688674e-17
  outer loop
    vertex -113.88342152717387 1383.6488915882942 -24.44888873943312
    vertex -121.77165009482762 1383.6488915882942 -37.999999999999986
    vertex -113.52165009482763 1383.6488915882942 -24.29903810567619
  endloop
endfacet
facet normal 0.0 -1.0 -8.326672684688674e-17
  outer loop
    vertex -114.27165009482763 1383.6488915882942 -24.499999999999627
    vertex -121.77165009482762 1383.6488915882942 -37.999999999999986
    vertex -113.88342152717387 1383.6488915882942 -24.44888873943312
  endloop
endfacet
facet normal 0.0 -1.0 -8.326672684688674e-17
  outer loop
    vertex -114.65987866248142 1383.6488915882942 -24.44888873943312
    vertex -121.77165009482762 1383.6488915882942 -37.999999999999986
    vertex -114.27165009482763 1383.6488915882942 -24.499999999999627
  endloop
endfacet
facet normal 0.0 -1.0 -8.326672684688674e-17
  outer loop
    vertex -115.02165009482763 1383.6488915882942 -24.29903810567619
    vertex -121.77165009482762 1383.6488915882942 -37.999999999999986
    vertex -114.65987866248142 1383.6488915882942 -24.44888873943312
  endloop
endfacet
facet normal 0.0 -1.0 -8.326672684688674e-17
  outer loop
    vertex -115.33231026660746 1383.6488915882942 -24.06066017177941
    vertex -121.77165009482762 1383.6488915882942 -37.999999999999986
    vertex -115.02165009482763 1383.6488915882942 -24.29903810567619
  endloop
endfacet
facet normal 0.0 -1.0 -8.326672684688674e-17
  outer loop
    vertex -115.57068820050429 1383.6488915882942 -23.74999999999962
    vertex -121.77165009482762 1383.6488915882942 -37.999999999999986
    vertex -115.33231026660746 1383.6488915882942 -24.06066017177941
  endloop
endfacet
facet normal 0.0 -1.0 -8.326672684688674e-17
  outer loop
    vertex -115.72053883426125 1383.6488915882942 -23.388228567653318
    vertex -121.77165009482762 1383.6488915882942 -37.999999999999986
    vertex -115.57068820050429 1383.6488915882942 -23.74999999999962
  endloop
endfacet
facet normal 0.0 -1.0 -8.326672684688674e-17
  outer loop
    vertex -115.77165009482763 1383.6488915882942 -22.99999999999961
    vertex -121.77165009482762 1383.6488915882942 -37.999999999999986
    vertex -115.72053883426125 1383.6488915882942 -23.388228567653318
  endloop
endfacet
facet normal 0.0 -1.0 -8.326672684688674e-17
  outer loop
    vertex -121.77165009482762 1383.6488915882942 -7.999999999999771
    vertex -112.97261198915099 1383.6488915882942 -22.2499999999996
    vertex -109.7716500948276 1383.6488915882942 -7.999999999999771
  endloop
endfacet
facet normal 0.0 -1.0 -8.326672684688674e-17
  outer loop
    vertex -112.82276135539404 1383.6488915882942 -22.611771432345897
    vertex -109.7716500948276 1383.6488915882942 -7.999999999999771
    vertex -112.97261198915099 1383.6488915882942 -22.2499999999996
  endloop
endfacet
facet normal 0.0 -1.0 -8.326672684688674e-17
  outer loop
    vertex -109.77312447871584 1383.6488915882942 -37.999999999999986
    vertex -109.7716500948276 1383.6488915882942 -7.999999999999771
    vertex -112.82276135539404 1383.6488915882942 -22.611771432345897
  endloop
endfacet
facet normal 0.0 -1.0 -8.326672684688674e-17
  outer loop
    vertex -112.77165009482765 1383.6488915882942 -22.99999999999961
    vertex -109.77312447871584 1383.6488915882942 -37.999999999999986
    vertex -112.82276135539404 1383.6488915882942 -22.611771432345897
  endloop
endfacet
facet normal 0.0 -1.0 -8.326672684688674e-17
  outer loop
    vertex -113.21098992304782 1383.6488915882942 -21.939339828219808
    vertex -112.97261198915099 1383.6488915882942 -22.2499999999996
    vertex -121.77165009482762 1383.6488915882942 -7.999999999999771
  endloop
endfacet
facet normal 0.0 -1.0 -8.326672684688674e-17
  outer loop
    vertex -113.52165009482765 1383.6488915882942 -21.700961894323026
    vertex -113.21098992304782 1383.6488915882942 -21.939339828219808
    vertex -121.77165009482762 1383.6488915882942 -7.999999999999771
  endloop
endfacet
facet normal 0.0 -1.0 -8.326672684688674e-17
  outer loop
    vertex -113.88342152717387 1383.6488915882942 -21.551111260566095
    vertex -113.52165009482765 1383.6488915882942 -21.700961894323026
    vertex -121.77165009482762 1383.6488915882942 -7.999999999999771
  endloop
endfacet
facet normal 0.0 -1.0 -8.326672684688674e-17
  outer loop
    vertex -114.27165009482763 1383.6488915882942 -21.499999999999588
    vertex -113.88342152717387 1383.6488915882942 -21.551111260566095
    vertex -121.77165009482762 1383.6488915882942 -7.999999999999771
  endloop
endfacet
facet normal 0.0 -1.0 -8.326672684688674e-17
  outer loop
    vertex -114.65987866248142 1383.6488915882942 -21.551111260566095
    vertex -114.27165009482763 1383.6488915882942 -21.499999999999588
    vertex -121.77165009482762 1383.6488915882942 -7.999999999999771
  endloop
endfacet
facet normal 0.0 -1.0 -8.326672684688674e-17
  outer loop
    vertex -115.02165009482765 1383.6488915882942 -21.700961894323026
    vertex -114.65987866248142 1383.6488915882942 -21.551111260566095
    vertex -121.77165009482762 1383.6488915882942 -7.999999999999771
  endloop
endfacet
facet normal 0.0 -1.0 -8.326672684688674e-17
  outer loop
    vertex -115.33231026660746 1383.6488915882942 -21.939339828219808
    vertex -115.02165009482765 1383.6488915882942 -21.700961894323026
    vertex -121.77165009482762 1383.6488915882942 -7.999999999999771
  endloop
endfacet
facet normal 0.0 -1.0 -8.326672684688674e-17
  outer loop
    vertex -115.57068820050429 1383.6488915882942 -22.2499999999996
    vertex -115.33231026660746 1383.6488915882942 -21.939339828219808
    vertex -121.77165009482762 1383.6488915882942 -7.999999999999771
  endloop
endfacet
facet normal 0.0 -1.0 -8.326672684688674e-17
  outer loop
    vertex -115.72053883426125 1383.6488915882942 -22.611771432345897
    vertex -115.57068820050429 1383.6488915882942 -22.2499999999996
    vertex -121.77165009482762 1383.6488915882942 -7.999999999999771
  endloop
endfacet
facet normal 0.0 -1.0 -8.326672684688674e-17
  outer loop
    vertex -115.77165009482763 1383.6488915882942 -22.99999999999961
    vertex -115.72053883426125 1383.6488915882942 -22.611771432345897
    vertex -121.77165009482762 1383.6488915882942 -7.999999999999771
  endloop
endfacet
facet normal 0.0 -1.0 -8.326672684688674e-17
  outer loop
    vertex -121.77165009482762 1383.6488915882942 -37.999999999999986
    vertex -115.77165009482763 1383.6488915882942 -22.99999999999961
    vertex -121.77165009482762 1383.6488915882942 -7.999999999999771
  endloop
endfacet
facet normal 0.0 -1.0 -8.326672684688674e-17
  outer loop
    vertex -106.7716500948276 1380.6488915882942 -7.999999999999771
    vertex -109.7716500948276 1380.6488915882942 -7.999999999999771
    vertex -106.77312447871584 1380.6488915882942 -37.999999999999986
  endloop
endfacet
facet normal 0.0 -1.0 -8.326672684688674e-17
  outer loop
    vertex -109.77312447871584 1380.6488915882942 -37.999999999999986
    vertex -106.77312447871584 1380.6488915882942 -37.999999999999986
    vertex -109.7716500948276 1380.6488915882942 -7.999999999999771
  endloop
endfacet
facet normal -0.999999998792329 -4.092237344695902e-21 4.914612954849092e-05
  outer loop
    vertex -109.7716500948276 1380.6488915882942 -7.999999999999771
    vertex -109.7716500948276 1383.6488915882942 -7.999999999999771
    vertex -109.77312447871584 1380.6488915882942 -37.999999999999986
  endloop
endfacet
facet normal -0.999999998792329 -4.092237344695902e-21 4.914612954849092e-05
  outer loop
    vertex -109.77312447871584 1383.6488915882942 -37.999999999999986
    vertex -109.77312447871584 1380.6488915882942 -37.999999999999986
    vertex -109.7716500948276 1383.6488915882942 -7.999999999999771
  endloop
endfacet
facet normal 0.999999998792329 4.092237344695902e-21 -4.914612954849092e-05
  outer loop
    vertex -106.7716500948276 1383.6488915882942 -7.999999999999771
    vertex -106.7716500948276 1380.6488915882942 -7.999999999999771
    vertex -106.77312447871584 1383.6488915882942 -37.999999999999986
  endloop
endfacet
facet normal 0.999999998792329 4.092237344695902e-21 -4.914612954849092e-05
  outer loop
    vertex -106.77312447871584 1380.6488915882942 -37.999999999999986
    vertex -106.77312447871584 1383.6488915882942 -37.999999999999986
    vertex -106.7716500948276 1380.6488915882942 -7.999999999999771
  endloop
endfacet
facet normal -0.9914448613738083 -1.0868488793952626e-17 0.1305261922200679
  outer loop
    vertex -112.77165009482765 1383.6488915882942 -22.99999999999961
    vertex -112.77165009482765 1389.6488915882942 -22.99999999999961
    vertex -112.82276135539404 1383.6488915882942 -23.388228567653318
  endloop
endfacet
facet normal -0.9914448613738083 -1.0868488793952626e-17 0.1305261922200679
  outer loop
    vertex -112.82276135539404 1389.6488915882942 -23.388228567653318
    vertex -112.82276135539404 1383.6488915882942 -23.388228567653318
    vertex -112.77165009482765 1389.6488915882942 -22.99999999999961
  endloop
endfacet
facet normal -0.9914448613738083 1.0868488793952626e-17 -0.1305261922200679
  outer loop
    vertex -112.82276135539404 1383.6488915882942 -22.611771432345897
    vertex -112.82276135539404 1389.6488915882942 -22.611771432345897
    vertex -112.77165009482765 1383.6488915882942 -22.99999999999961
  endloop
endfacet
facet normal -0.9914448613738083 1.0868488793952626e-17 -0.1305261922200679
  outer loop
    vertex -112.77165009482765 1389.6488915882942 -22.99999999999961
    vertex -112.77165009482765 1383.6488915882942 -22.99999999999961
    vertex -112.82276135539404 1389.6488915882942 -22.611771432345897
  endloop
endfacet
facet normal -0.9238795325113098 3.186479683156835e-17 -0.3826834323650341
  outer loop
    vertex -112.97261198915099 1383.6488915882942 -22.2499999999996
    vertex -112.97261198915099 1389.6488915882942 -22.2499999999996
    vertex -112.82276135539404 1383.6488915882942 -22.611771432345897
  endloop
endfacet
facet normal -0.9238795325113098 3.186479683156835e-17 -0.3826834323650341
  outer loop
    vertex -112.82276135539404 1389.6488915882942 -22.611771432345897
    vertex -112.82276135539404 1383.6488915882942 -22.611771432345897
    vertex -112.97261198915099 1389.6488915882942 -22.2499999999996
  endloop
endfacet
facet normal -0.7933533402912196 5.068957162419126e-17 -0.6087614290087409
  outer loop
    vertex -113.21098992304782 1383.6488915882942 -21.939339828219808
    vertex -113.21098992304782 1389.6488915882942 -21.939339828219808
    vertex -112.97261198915099 1383.6488915882942 -22.2499999999996
  endloop
endfacet
facet normal -0.7933533402912196 5.068957162419126e-17 -0.6087614290087409
  outer loop
    vertex -112.97261198915099 1389.6488915882942 -22.2499999999996
    vertex -112.97261198915099 1383.6488915882942 -22.2499999999996
    vertex -113.21098992304782 1389.6488915882942 -21.939339828219808
  endloop
endfacet
facet normal -0.6087614290086126 6.605993587910236e-17 -0.793353340291318
  outer loop
    vertex -113.21098992304782 1383.6488915882942 -21.939339828219808
    vertex -113.52165009482765 1383.6488915882942 -21.700961894323026
    vertex -113.21098992304782 1389.6488915882942 -21.939339828219808
  endloop
endfacet
facet normal -0.6087614290086126 6.605993587910236e-17 -0.793353340291318
  outer loop
    vertex -113.52165009482765 1389.6488915882942 -21.700961894323026
    vertex -113.21098992304782 1389.6488915882942 -21.939339828219808
    vertex -113.52165009482765 1383.6488915882942 -21.700961894323026
  endloop
endfacet
facet normal -0.38268343236506636 7.692842467304754e-17 -0.9238795325112964
  outer loop
    vertex -113.52165009482765 1383.6488915882942 -21.700961894323026
    vertex -113.88342152717387 1383.6488915882942 -21.551111260566095
    vertex -113.52165009482765 1389.6488915882942 -21.700961894323026
  endloop
endfacet
facet normal -0.38268343236506636 7.692842467304754e-17 -0.9238795325112964
  outer loop
    vertex -113.88342152717387 1389.6488915882942 -21.551111260566095
    vertex -113.52165009482765 1389.6488915882942 -21.700961894323026
    vertex -113.88342152717387 1383.6488915882942 -21.551111260566095
  endloop
endfacet
facet normal -0.13052619222032869 8.255436845575952e-17 -0.991444861373774
  outer loop
    vertex -113.88342152717387 1383.6488915882942 -21.551111260566095
    vertex -114.27165009482763 1383.6488915882942 -21.499999999999588
    vertex -113.88342152717387 1389.6488915882942 -21.551111260566095
  endloop
endfacet
facet normal -0.13052619222032869 8.255436845575952e-17 -0.991444861373774
  outer loop
    vertex -114.27165009482763 1389.6488915882942 -21.499999999999588
    vertex -113.88342152717387 1389.6488915882942 -21.551111260566095
    vertex -114.27165009482763 1383.6488915882942 -21.499999999999588
  endloop
endfacet
facet normal 0.13052619222032869 8.255436845575952e-17 -0.991444861373774
  outer loop
    vertex -114.27165009482763 1383.6488915882942 -21.499999999999588
    vertex -114.65987866248142 1383.6488915882942 -21.551111260566095
    vertex -114.27165009482763 1389.6488915882942 -21.499999999999588
  endloop
endfacet
facet normal 0.13052619222032869 8.255436845575952e-17 -0.991444861373774
  outer loop
    vertex -114.65987866248142 1389.6488915882942 -21.551111260566095
    vertex -114.27165009482763 1389.6488915882942 -21.499999999999588
    vertex -114.65987866248142 1383.6488915882942 -21.551111260566095
  endloop
endfacet
facet normal 0.382683432365046 7.692842467304824e-17 -0.9238795325113048
  outer loop
    vertex -114.65987866248142 1383.6488915882942 -21.551111260566095
    vertex -115.02165009482765 1383.6488915882942 -21.700961894323026
    vertex -114.65987866248142 1389.6488915882942 -21.551111260566095
  endloop
endfacet
facet normal 0.382683432365046 7.692842467304824e-17 -0.9238795325113048
  outer loop
    vertex -115.02165009482765 1389.6488915882942 -21.700961894323026
    vertex -114.65987866248142 1389.6488915882942 -21.551111260566095
    vertex -115.02165009482765 1383.6488915882942 -21.700961894323026
  endloop
endfacet
facet normal 0.6087614290086405 6.60599358791006e-17 -0.7933533402912968
  outer loop
    vertex -115.02165009482765 1383.6488915882942 -21.700961894323026
    vertex -115.33231026660746 1383.6488915882942 -21.939339828219808
    vertex -115.02165009482765 1389.6488915882942 -21.700961894323026
  endloop
endfacet
facet normal 0.6087614290086405 6.60599358791006e-17 -0.7933533402912968
  outer loop
    vertex -115.33231026660746 1389.6488915882942 -21.939339828219808
    vertex -115.02165009482765 1389.6488915882942 -21.700961894323026
    vertex -115.33231026660746 1383.6488915882942 -21.939339828219808
  endloop
endfacet
facet normal 0.7933533402912196 5.068957162419126e-17 -0.6087614290087409
  outer loop
    vertex -115.33231026660746 1389.6488915882942 -21.939339828219808
    vertex -115.33231026660746 1383.6488915882942 -21.939339828219808
    vertex -115.57068820050429 1389.6488915882942 -22.2499999999996
  endloop
endfacet
facet normal 0.7933533402912196 5.068957162419126e-17 -0.6087614290087409
  outer loop
    vertex -115.57068820050429 1383.6488915882942 -22.2499999999996
    vertex -115.57068820050429 1389.6488915882942 -22.2499999999996
    vertex -115.33231026660746 1383.6488915882942 -21.939339828219808
  endloop
endfacet
facet normal 0.9238795325113098 3.186479683156835e-17 -0.3826834323650341
  outer loop
    vertex -115.57068820050429 1389.6488915882942 -22.2499999999996
    vertex -115.57068820050429 1383.6488915882942 -22.2499999999996
    vertex -115.72053883426125 1389.6488915882942 -22.611771432345897
  endloop
endfacet
facet normal 0.9238795325113098 3.186479683156835e-17 -0.3826834323650341
  outer loop
    vertex -115.72053883426125 1383.6488915882942 -22.611771432345897
    vertex -115.72053883426125 1389.6488915882942 -22.611771432345897
    vertex -115.57068820050429 1383.6488915882942 -22.2499999999996
  endloop
endfacet
facet normal 0.9914448613738083 1.0868488793952626e-17 -0.1305261922200679
  outer loop
    vertex -115.72053883426125 1389.6488915882942 -22.611771432345897
    vertex -115.72053883426125 1383.6488915882942 -22.611771432345897
    vertex -115.77165009482763 1389.6488915882942 -22.99999999999961
  endloop
endfacet
facet normal 0.9914448613738083 1.0868488793952626e-17 -0.1305261922200679
  outer loop
    vertex -115.77165009482763 1383.6488915882942 -22.99999999999961
    vertex -115.77165009482763 1389.6488915882942 -22.99999999999961
    vertex -115.72053883426125 1383.6488915882942 -22.611771432345897
  endloop
endfacet
facet normal 0.9914448613738083 -1.0868488793952626e-17 0.1305261922200679
  outer loop
    vertex -115.77165009482763 1389.6488915882942 -22.99999999999961
    vertex -115.77165009482763 1383.6488915882942 -22.99999999999961
    vertex -115.72053883426125 1389.6488915882942 -23.388228567653318
  endloop
endfacet
facet normal 0.9914448613738083 -1.0868488793952626e-17 0.1305261922200679
  outer loop
    vertex -115.72053883426125 1383.6488915882942 -23.388228567653318
    vertex -115.72053883426125 1389.6488915882942 -23.388228567653318
    vertex -115.77165009482763 1383.6488915882942 -22.99999999999961
  endloop
endfacet
facet normal 0.9238795325113098 -3.186479683156835e-17 0.3826834323650341
  outer loop
    vertex -115.72053883426125 1389.6488915882942 -23.388228567653318
    vertex -115.72053883426125 1383.6488915882942 -23.388228567653318
    vertex -115.57068820050429 1389.6488915882942 -23.74999999999962
  endloop
endfacet
facet normal 0.9238795325113098 -3.186479683156835e-17 0.3826834323650341
  outer loop
    vertex -115.57068820050429 1383.6488915882942 -23.74999999999962
    vertex -115.57068820050429 1389.6488915882942 -23.74999999999962
    vertex -115.72053883426125 1383.6488915882942 -23.388228567653318
  endloop
endfacet
facet normal 0.7933533402912196 -5.068957162419126e-17 0.6087614290087409
  outer loop
    vertex -115.57068820050429 1389.6488915882942 -23.74999999999962
    vertex -115.57068820050429 1383.6488915882942 -23.74999999999962
    vertex -115.33231026660746 1389.6488915882942 -24.06066017177941
  endloop
endfacet
facet normal 0.7933533402912196 -5.068957162419126e-17 0.6087614290087409
  outer loop
    vertex -115.33231026660746 1383.6488915882942 -24.06066017177941
    vertex -115.33231026660746 1389.6488915882942 -24.06066017177941
    vertex -115.57068820050429 1383.6488915882942 -23.74999999999962
  endloop
endfacet
facet normal 0.6087614290086126 -6.605993587910236e-17 0.793353340291318
  outer loop
    vertex -115.33231026660746 1383.6488915882942 -24.06066017177941
    vertex -115.02165009482763 1383.6488915882942 -24.29903810567619
    vertex -115.33231026660746 1389.6488915882942 -24.06066017177941
  endloop
endfacet
facet normal 0.6087614290086126 -6.605993587910236e-17 0.793353340291318
  outer loop
    vertex -115.02165009482763 1389.6488915882942 -24.29903810567619
    vertex -115.33231026660746 1389.6488915882942 -24.06066017177941
    vertex -115.02165009482763 1383.6488915882942 -24.29903810567619
  endloop
endfacet
facet normal 0.38268343236506636 -7.692842467304754e-17 0.9238795325112964
  outer loop
    vertex -115.02165009482763 1383.6488915882942 -24.29903810567619
    vertex -114.65987866248142 1383.6488915882942 -24.44888873943312
    vertex -115.02165009482763 1389.6488915882942 -24.29903810567619
  endloop
endfacet
facet normal 0.38268343236506636 -7.692842467304754e-17 0.9238795325112964
  outer loop
    vertex -114.65987866248142 1389.6488915882942 -24.44888873943312
    vertex -115.02165009482763 1389.6488915882942 -24.29903810567619
    vertex -114.65987866248142 1383.6488915882942 -24.44888873943312
  endloop
endfacet
facet normal 0.13052619222032869 -8.255436845575952e-17 0.991444861373774
  outer loop
    vertex -114.65987866248142 1383.6488915882942 -24.44888873943312
    vertex -114.27165009482763 1383.6488915882942 -24.499999999999627
    vertex -114.65987866248142 1389.6488915882942 -24.44888873943312
  endloop
endfacet
facet normal 0.13052619222032869 -8.255436845575952e-17 0.991444861373774
  outer loop
    vertex -114.27165009482763 1389.6488915882942 -24.499999999999627
    vertex -114.65987866248142 1389.6488915882942 -24.44888873943312
    vertex -114.27165009482763 1383.6488915882942 -24.499999999999627
  endloop
endfacet
facet normal -0.13052619222032869 -8.255436845575952e-17 0.991444861373774
  outer loop
    vertex -114.27165009482763 1383.6488915882942 -24.499999999999627
    vertex -113.88342152717387 1383.6488915882942 -24.44888873943312
    vertex -114.27165009482763 1389.6488915882942 -24.499999999999627
  endloop
endfacet
facet normal -0.13052619222032869 -8.255436845575952e-17 0.991444861373774
  outer loop
    vertex -113.88342152717387 1389.6488915882942 -24.44888873943312
    vertex -114.27165009482763 1389.6488915882942 -24.499999999999627
    vertex -113.88342152717387 1383.6488915882942 -24.44888873943312
  endloop
endfacet
facet normal -0.382683432365046 -7.692842467304824e-17 0.9238795325113048
  outer loop
    vertex -113.88342152717387 1383.6488915882942 -24.44888873943312
    vertex -113.52165009482763 1383.6488915882942 -24.29903810567619
    vertex -113.88342152717387 1389.6488915882942 -24.44888873943312
  endloop
endfacet
facet normal -0.382683432365046 -7.692842467304824e-17 0.9238795325113048
  outer loop
    vertex -113.52165009482763 1389.6488915882942 -24.29903810567619
    vertex -113.88342152717387 1389.6488915882942 -24.44888873943312
    vertex -113.52165009482763 1383.6488915882942 -24.29903810567619
  endloop
endfacet
facet normal -0.6087614290086405 -6.60599358791006e-17 0.7933533402912968
  outer loop
    vertex -113.52165009482763 1383.6488915882942 -24.29903810567619
    vertex -113.21098992304782 1383.6488915882942 -24.06066017177941
    vertex -113.52165009482763 1389.6488915882942 -24.29903810567619
  endloop
endfacet
facet normal -0.6087614290086405 -6.60599358791006e-17 0.7933533402912968
  outer loop
    vertex -113.21098992304782 1389.6488915882942 -24.06066017177941
    vertex -113.52165009482763 1389.6488915882942 -24.29903810567619
    vertex -113.21098992304782 1383.6488915882942 -24.06066017177941
  endloop
endfacet
facet normal -0.7933533402912196 -5.068957162419126e-17 0.6087614290087409
  outer loop
    vertex -112.97261198915099 1383.6488915882942 -23.74999999999962
    vertex -112.97261198915099 1389.6488915882942 -23.74999999999962
    vertex -113.21098992304782 1383.6488915882942 -24.06066017177941
  endloop
endfacet
facet normal -0.7933533402912196 -5.068957162419126e-17 0.6087614290087409
  outer loop
    vertex -113.21098992304782 1389.6488915882942 -24.06066017177941
    vertex -113.21098992304782 1383.6488915882942 -24.06066017177941
    vertex -112.97261198915099 1389.6488915882942 -23.74999999999962
  endloop
endfacet
facet normal -0.9238795325113098 -3.186479683156835e-17 0.3826834323650341
  outer loop
    vertex -112.82276135539404 1383.6488915882942 -23.388228567653318
    vertex -112.82276135539404 1389.6488915882942 -23.388228567653318
    vertex -112.97261198915099 1383.6488915882942 -23.74999999999962
  endloop
endfacet
facet normal -0.9238795325113098 -3.186479683156835e-17 0.3826834323650341
  outer loop
    vertex -112.97261198915099 1389.6488915882942 -23.74999999999962
    vertex -112.97261198915099 1383.6488915882942 -23.74999999999962
    vertex -112.82276135539404 1389.6488915882942 -23.388228567653318
  endloop
endfacet
facet normal 0.991444861373801 1.0868488793957344e-17 -0.13052619222012454
  outer loop
    vertex -96.7205388342612 1389.6488915882942 -22.611771432346078
    vertex -96.7205388342612 1386.6488915882942 -22.611771432346078
    vertex -96.77165009482763 1389.6488915882942 -22.99999999999979
  endloop
endfacet
facet normal 0.991444861373801 1.0868488793957344e-17 -0.13052619222012454
  outer loop
    vertex -96.77165009482763 1386.6488915882942 -22.99999999999979
    vertex -96.77165009482763 1389.6488915882942 -22.99999999999979
    vertex -96.7205388342612 1386.6488915882942 -22.611771432346078
  endloop
endfacet
facet normal 0.991444861373801 -1.0868488793957344e-17 0.13052619222012454
  outer loop
    vertex -96.77165009482763 1389.6488915882942 -22.99999999999979
    vertex -96.77165009482763 1386.6488915882942 -22.99999999999979
    vertex -96.7205388342612 1389.6488915882942 -23.3882285676535
  endloop
endfacet
facet normal 0.991444861373801 -1.0868488793957344e-17 0.13052619222012454
  outer loop
    vertex -96.7205388342612 1386.6488915882942 -23.3882285676535
    vertex -96.7205388342612 1389.6488915882942 -23.3882285676535
    vertex -96.77165009482763 1386.6488915882942 -22.99999999999979
  endloop
endfacet
facet normal 0.9238795325113303 -3.186479683156426e-17 0.382683432364985
  outer loop
    vertex -96.7205388342612 1389.6488915882942 -23.3882285676535
    vertex -96.7205388342612 1386.6488915882942 -23.3882285676535
    vertex -96.57068820050428 1389.6488915882942 -23.749999999999797
  endloop
endfacet
facet normal 0.9238795325113303 -3.186479683156426e-17 0.382683432364985
  outer loop
    vertex -96.57068820050428 1386.6488915882942 -23.749999999999797
    vertex -96.57068820050428 1389.6488915882942 -23.749999999999797
    vertex -96.7205388342612 1386.6488915882942 -23.3882285676535
  endloop
endfacet
facet normal 0.7933533402912196 -5.068957162419126e-17 0.6087614290087409
  outer loop
    vertex -96.57068820050428 1389.6488915882942 -23.749999999999797
    vertex -96.57068820050428 1386.6488915882942 -23.749999999999797
    vertex -96.33231026660745 1389.6488915882942 -24.06066017177959
  endloop
endfacet
facet normal 0.7933533402912196 -5.068957162419126e-17 0.6087614290087409
  outer loop
    vertex -96.33231026660745 1386.6488915882942 -24.06066017177959
    vertex -96.33231026660745 1389.6488915882942 -24.06066017177959
    vertex -96.57068820050428 1386.6488915882942 -23.749999999999797
  endloop
endfacet
facet normal 0.6087614290086126 -6.605993587910236e-17 0.793353340291318
  outer loop
    vertex -96.33231026660745 1386.6488915882942 -24.06066017177959
    vertex -96.02165009482762 1386.6488915882942 -24.29903810567637
    vertex -96.33231026660745 1389.6488915882942 -24.06066017177959
  endloop
endfacet
facet normal 0.6087614290086126 -6.605993587910236e-17 0.793353340291318
  outer loop
    vertex -96.02165009482762 1389.6488915882942 -24.29903810567637
    vertex -96.33231026660745 1389.6488915882942 -24.06066017177959
    vertex -96.02165009482762 1386.6488915882942 -24.29903810567637
  endloop
endfacet
facet normal 0.38268343236506636 -7.692842467304754e-17 0.9238795325112964
  outer loop
    vertex -96.02165009482762 1386.6488915882942 -24.29903810567637
    vertex -95.6598786624814 1386.6488915882942 -24.4488887394333
    vertex -96.02165009482762 1389.6488915882942 -24.29903810567637
  endloop
endfacet
facet normal 0.38268343236506636 -7.692842467304754e-17 0.9238795325112964
  outer loop
    vertex -95.6598786624814 1389.6488915882942 -24.4488887394333
    vertex -96.02165009482762 1389.6488915882942 -24.29903810567637
    vertex -95.6598786624814 1386.6488915882942 -24.4488887394333
  endloop
endfacet
facet normal 0.13052619222032125 -8.255436845575962e-17 0.9914448613737751
  outer loop
    vertex -95.6598786624814 1386.6488915882942 -24.4488887394333
    vertex -95.2716500948276 1386.6488915882942 -24.499999999999808
    vertex -95.6598786624814 1389.6488915882942 -24.4488887394333
  endloop
endfacet
facet normal 0.13052619222032125 -8.255436845575962e-17 0.9914448613737751
  outer loop
    vertex -95.2716500948276 1389.6488915882942 -24.499999999999808
    vertex -95.6598786624814 1389.6488915882942 -24.4488887394333
    vertex -95.2716500948276 1386.6488915882942 -24.499999999999808
  endloop
endfacet
facet normal -0.13052619222033615 -8.255436845575945e-17 0.991444861373773
  outer loop
    vertex -95.2716500948276 1386.6488915882942 -24.499999999999808
    vertex -94.88342152717385 1386.6488915882942 -24.4488887394333
    vertex -95.2716500948276 1389.6488915882942 -24.499999999999808
  endloop
endfacet
facet normal -0.13052619222033615 -8.255436845575945e-17 0.991444861373773
  outer loop
    vertex -94.88342152717385 1389.6488915882942 -24.4488887394333
    vertex -95.2716500948276 1389.6488915882942 -24.499999999999808
    vertex -94.88342152717385 1386.6488915882942 -24.4488887394333
  endloop
endfacet
facet normal -0.3826834323650256 -7.692842467304894e-17 0.9238795325113133
  outer loop
    vertex -94.88342152717385 1386.6488915882942 -24.4488887394333
    vertex -94.52165009482759 1386.6488915882942 -24.29903810567637
    vertex -94.88342152717385 1389.6488915882942 -24.4488887394333
  endloop
endfacet
facet normal -0.3826834323650256 -7.692842467304894e-17 0.9238795325113133
  outer loop
    vertex -94.52165009482759 1389.6488915882942 -24.29903810567637
    vertex -94.88342152717385 1389.6488915882942 -24.4488887394333
    vertex -94.52165009482759 1386.6488915882942 -24.29903810567637
  endloop
endfacet
facet normal -0.6087614290086684 -6.605993587909882e-17 0.7933533402912755
  outer loop
    vertex -94.52165009482759 1386.6488915882942 -24.29903810567637
    vertex -94.2109899230478 1386.6488915882942 -24.06066017177959
    vertex -94.52165009482759 1389.6488915882942 -24.29903810567637
  endloop
endfacet
facet normal -0.6087614290086684 -6.605993587909882e-17 0.7933533402912755
  outer loop
    vertex -94.2109899230478 1389.6488915882942 -24.06066017177959
    vertex -94.52165009482759 1389.6488915882942 -24.29903810567637
    vertex -94.2109899230478 1386.6488915882942 -24.06066017177959
  endloop
endfacet
facet normal -0.7933533402912196 -5.068957162419126e-17 0.6087614290087409
  outer loop
    vertex -93.97261198915098 1386.6488915882942 -23.749999999999797
    vertex -93.97261198915098 1389.6488915882942 -23.749999999999797
    vertex -94.2109899230478 1386.6488915882942 -24.06066017177959
  endloop
endfacet
facet normal -0.7933533402912196 -5.068957162419126e-17 0.6087614290087409
  outer loop
    vertex -94.2109899230478 1389.6488915882942 -24.06066017177959
    vertex -94.2109899230478 1386.6488915882942 -24.06066017177959
    vertex -93.97261198915098 1389.6488915882942 -23.749999999999797
  endloop
endfacet
facet normal -0.9238795325112894 -3.186479683157245e-17 0.3826834323650833
  outer loop
    vertex -93.82276135539401 1386.6488915882942 -23.3882285676535
    vertex -93.82276135539401 1389.6488915882942 -23.3882285676535
    vertex -93.97261198915098 1386.6488915882942 -23.749999999999797
  endloop
endfacet
facet normal -0.9238795325112894 -3.186479683157245e-17 0.3826834323650833
  outer loop
    vertex -93.97261198915098 1389.6488915882942 -23.749999999999797
    vertex -93.97261198915098 1386.6488915882942 -23.749999999999797
    vertex -93.82276135539401 1389.6488915882942 -23.3882285676535
  endloop
endfacet
facet normal -0.9914448613738157 -1.0868488793947912e-17 0.13052619222001127
  outer loop
    vertex -93.77165009482763 1386.6488915882942 -22.99999999999979
    vertex -93.77165009482763 1389.6488915882942 -22.99999999999979
    vertex -93.82276135539401 1386.6488915882942 -23.3882285676535
  endloop
endfacet
facet normal -0.9914448613738157 -1.0868488793947912e-17 0.13052619222001127
  outer loop
    vertex -93.82276135539401 1389.6488915882942 -23.3882285676535
    vertex -93.82276135539401 1386.6488915882942 -23.3882285676535
    vertex -93.77165009482763 1389.6488915882942 -22.99999999999979
  endloop
endfacet
facet normal -0.9914448613738157 1.0868488793947912e-17 -0.13052619222001127
  outer loop
    vertex -93.82276135539401 1386.6488915882942 -22.611771432346078
    vertex -93.82276135539401 1389.6488915882942 -22.611771432346078
    vertex -93.77165009482763 1386.6488915882942 -22.99999999999979
  endloop
endfacet
facet normal -0.9914448613738157 1.0868488793947912e-17 -0.13052619222001127
  outer loop
    vertex -93.77165009482763 1389.6488915882942 -22.99999999999979
    vertex -93.77165009482763 1386.6488915882942 -22.99999999999979
    vertex -93.82276135539401 1389.6488915882942 -22.611771432346078
  endloop
endfacet
facet normal -0.9238795325112894 3.186479683157245e-17 -0.3826834323650833
  outer loop
    vertex -93.97261198915098 1386.6488915882942 -22.24999999999978
    vertex -93.97261198915098 1389.6488915882942 -22.24999999999978
    vertex -93.82276135539401 1386.6488915882942 -22.611771432346078
  endloop
endfacet
facet normal -0.9238795325112894 3.186479683157245e-17 -0.3826834323650833
  outer loop
    vertex -93.82276135539401 1389.6488915882942 -22.611771432346078
    vertex -93.82276135539401 1386.6488915882942 -22.611771432346078
    vertex -93.97261198915098 1389.6488915882942 -22.24999999999978
  endloop
endfacet
facet normal -0.7933533402912196 5.068957162419126e-17 -0.6087614290087409
  outer loop
    vertex -94.2109899230478 1386.6488915882942 -21.93933982821999
    vertex -94.2109899230478 1389.6488915882942 -21.93933982821999
    vertex -93.97261198915098 1386.6488915882942 -22.24999999999978
  endloop
endfacet
facet normal -0.7933533402912196 5.068957162419126e-17 -0.6087614290087409
  outer loop
    vertex -93.97261198915098 1389.6488915882942 -22.24999999999978
    vertex -93.97261198915098 1386.6488915882942 -22.24999999999978
    vertex -94.2109899230478 1389.6488915882942 -21.93933982821999
  endloop
endfacet
facet normal -0.6087614290086126 6.605993587910236e-17 -0.793353340291318
  outer loop
    vertex -94.2109899230478 1386.6488915882942 -21.93933982821999
    vertex -94.52165009482765 1386.6488915882942 -21.700961894323207
    vertex -94.2109899230478 1389.6488915882942 -21.93933982821999
  endloop
endfacet
facet normal -0.6087614290086126 6.605993587910236e-17 -0.793353340291318
  outer loop
    vertex -94.52165009482765 1389.6488915882942 -21.700961894323207
    vertex -94.2109899230478 1389.6488915882942 -21.93933982821999
    vertex -94.52165009482765 1386.6488915882942 -21.700961894323207
  endloop
endfacet
facet normal -0.38268343236506636 7.692842467304754e-17 -0.9238795325112964
  outer loop
    vertex -94.52165009482765 1386.6488915882942 -21.700961894323207
    vertex -94.88342152717385 1386.6488915882942 -21.551111260566277
    vertex -94.52165009482765 1389.6488915882942 -21.700961894323207
  endloop
endfacet
facet normal -0.38268343236506636 7.692842467304754e-17 -0.9238795325112964
  outer loop
    vertex -94.88342152717385 1389.6488915882942 -21.551111260566277
    vertex -94.52165009482765 1389.6488915882942 -21.700961894323207
    vertex -94.88342152717385 1386.6488915882942 -21.551111260566277
  endloop
endfacet
facet normal -0.13052619222033615 8.255436845575945e-17 -0.991444861373773
  outer loop
    vertex -94.88342152717385 1386.6488915882942 -21.551111260566277
    vertex -95.2716500948276 1386.6488915882942 -21.49999999999977
    vertex -94.88342152717385 1389.6488915882942 -21.551111260566277
  endloop
endfacet
facet normal -0.13052619222033615 8.255436845575945e-17 -0.991444861373773
  outer loop
    vertex -95.2716500948276 1389.6488915882942 -21.49999999999977
    vertex -94.88342152717385 1389.6488915882942 -21.551111260566277
    vertex -95.2716500948276 1386.6488915882942 -21.49999999999977
  endloop
endfacet
facet normal 0.13052619222032125 8.255436845575962e-17 -0.9914448613737751
  outer loop
    vertex -95.2716500948276 1386.6488915882942 -21.49999999999977
    vertex -95.6598786624814 1386.6488915882942 -21.551111260566277
    vertex -95.2716500948276 1389.6488915882942 -21.49999999999977
  endloop
endfacet
facet normal 0.13052619222032125 8.255436845575962e-17 -0.9914448613737751
  outer loop
    vertex -95.6598786624814 1389.6488915882942 -21.551111260566277
    vertex -95.2716500948276 1389.6488915882942 -21.49999999999977
    vertex -95.6598786624814 1386.6488915882942 -21.551111260566277
  endloop
endfacet
facet normal 0.38268343236506636 7.692842467304754e-17 -0.9238795325112964
  outer loop
    vertex -95.6598786624814 1386.6488915882942 -21.551111260566277
    vertex -96.02165009482762 1386.6488915882942 -21.700961894323207
    vertex -95.6598786624814 1389.6488915882942 -21.551111260566277
  endloop
endfacet
facet normal 0.38268343236506636 7.692842467304754e-17 -0.9238795325112964
  outer loop
    vertex -96.02165009482762 1389.6488915882942 -21.700961894323207
    vertex -95.6598786624814 1389.6488915882942 -21.551111260566277
    vertex -96.02165009482762 1386.6488915882942 -21.700961894323207
  endloop
endfacet
facet normal 0.6087614290086126 6.605993587910236e-17 -0.793353340291318
  outer loop
    vertex -96.02165009482762 1386.6488915882942 -21.700961894323207
    vertex -96.33231026660745 1386.6488915882942 -21.93933982821999
    vertex -96.02165009482762 1389.6488915882942 -21.700961894323207
  endloop
endfacet
facet normal 0.6087614290086126 6.605993587910236e-17 -0.793353340291318
  outer loop
    vertex -96.33231026660745 1389.6488915882942 -21.93933982821999
    vertex -96.02165009482762 1389.6488915882942 -21.700961894323207
    vertex -96.33231026660745 1386.6488915882942 -21.93933982821999
  endloop
endfacet
facet normal 0.7933533402912196 5.068957162419126e-17 -0.6087614290087409
  outer loop
    vertex -96.33231026660745 1389.6488915882942 -21.93933982821999
    vertex -96.33231026660745 1386.6488915882942 -21.93933982821999
    vertex -96.57068820050428 1389.6488915882942 -22.24999999999978
  endloop
endfacet
facet normal 0.7933533402912196 5.068957162419126e-17 -0.6087614290087409
  outer loop
    vertex -96.57068820050428 1386.6488915882942 -22.24999999999978
    vertex -96.57068820050428 1389.6488915882942 -22.24999999999978
    vertex -96.33231026660745 1386.6488915882942 -21.93933982821999
  endloop
endfacet
facet normal 0.9238795325113303 3.186479683156426e-17 -0.382683432364985
  outer loop
    vertex -96.57068820050428 1389.6488915882942 -22.24999999999978
    vertex -96.57068820050428 1386.6488915882942 -22.24999999999978
    vertex -96.7205388342612 1389.6488915882942 -22.611771432346078
  endloop
endfacet
facet normal 0.9238795325113303 3.186479683156426e-17 -0.382683432364985
  outer loop
    vertex -96.7205388342612 1386.6488915882942 -22.611771432346078
    vertex -96.7205388342612 1389.6488915882942 -22.611771432346078
    vertex -96.57068820050428 1386.6488915882942 -22.24999999999978
  endloop
endfacet
endsolid StevensonScreen_V1
